<svg width="64" height="64" viewBox="0 0 64 64" fill="none" xmlns="http://www.w3.org/2000/svg">
<path d="M31.8 2C18.8 2 7.69998 10.4 3.59998 22H60.2C56 10.4 44.9 2 31.8 2Z" fill="#F2B200"/>
<path d="M31.8 62C44.9 62 56 53.7 60.1 42H3.59998C7.69998 53.7 18.8 62 31.8 62Z" fill="#83BF4F"/>
<path d="M3.60002 22C2.50002 25.1 1.90002 28.5 1.90002 32C1.90002 35.5 2.50002 38.9 3.60002 42H60.2C61.3 38.9 61.9 35.5 61.9 32C61.9 28.5 61.3 25.1 60.2 22H3.60002Z" fill="white"/>
<path d="M31.8 40C36.2183 40 39.8 36.4183 39.8 32C39.8 27.5817 36.2183 24 31.8 24C27.3818 24 23.8 27.5817 23.8 32C23.8 36.4183 27.3818 40 31.8 40Z" fill="#428BC1"/>
<path d="M31.8 39C35.666 39 38.8 35.866 38.8 32C38.8 28.134 35.666 25 31.8 25C27.9341 25 24.8 28.134 24.8 32C24.8 35.866 27.9341 39 31.8 39Z" fill="white"/>
<path d="M29.2001 26C29.4762 26 29.7001 25.7761 29.7001 25.5C29.7001 25.2239 29.4762 25 29.2001 25C28.9239 25 28.7001 25.2239 28.7001 25.5C28.7001 25.7761 28.9239 26 29.2001 26Z" fill="#428BC1"/>
<path d="M27.6 26.9C27.8761 26.9 28.1 26.6762 28.1 26.4C28.1 26.1239 27.8761 25.9 27.6 25.9C27.3238 25.9 27.1 26.1239 27.1 26.4C27.1 26.6762 27.3238 26.9 27.6 26.9Z" fill="#428BC1"/>
<path d="M26.3 28.2C26.5762 28.2 26.8 27.9761 26.8 27.7C26.8 27.4238 26.5762 27.2 26.3 27.2C26.0239 27.2 25.8 27.4238 25.8 27.7C25.8 27.9761 26.0239 28.2 26.3 28.2Z" fill="#428BC1"/>
<path d="M25.4 29.8C25.6762 29.8 25.9 29.5762 25.9 29.3C25.9 29.0239 25.6762 28.8 25.4 28.8C25.1239 28.8 24.9 29.0239 24.9 29.3C24.9 29.5762 25.1239 29.8 25.4 29.8Z" fill="#428BC1"/>
<path d="M24.9 31.6C25.1762 31.6 25.4 31.3761 25.4 31.1C25.4 30.8238 25.1762 30.6 24.9 30.6C24.6239 30.6 24.4 30.8238 24.4 31.1C24.4 31.3761 24.6239 31.6 24.9 31.6Z" fill="#428BC1"/>
<path d="M24.9 33.4C25.1762 33.4 25.4 33.1762 25.4 32.9C25.4 32.6239 25.1762 32.4 24.9 32.4C24.6239 32.4 24.4 32.6239 24.4 32.9C24.4 33.1762 24.6239 33.4 24.9 33.4Z" fill="#428BC1"/>
<path d="M25.4 35.2C25.6762 35.2 25.9 34.9761 25.9 34.7C25.9 34.4238 25.6762 34.2 25.4 34.2C25.1239 34.2 24.9 34.4238 24.9 34.7C24.9 34.9761 25.1239 35.2 25.4 35.2Z" fill="#428BC1"/>
<path d="M26.3 36.8C26.5762 36.8 26.8 36.5762 26.8 36.3C26.8 36.0239 26.5762 35.8 26.3 35.8C26.0239 35.8 25.8 36.0239 25.8 36.3C25.8 36.5762 26.0239 36.8 26.3 36.8Z" fill="#428BC1"/>
<path d="M27.6 38.1C27.8761 38.1 28.1 37.8761 28.1 37.6C28.1 37.3238 27.8761 37.1 27.6 37.1C27.3238 37.1 27.1 37.3238 27.1 37.6C27.1 37.8761 27.3238 38.1 27.6 38.1Z" fill="#428BC1"/>
<path d="M29.2001 39C29.4762 39 29.7001 38.7761 29.7001 38.5C29.7001 38.2239 29.4762 38 29.2001 38C28.9239 38 28.7001 38.2239 28.7001 38.5C28.7001 38.7761 28.9239 39 29.2001 39Z" fill="#428BC1"/>
<path d="M30.9 39.4C31.1762 39.4 31.4 39.1762 31.4 38.9C31.4 38.6239 31.1762 38.4 30.9 38.4C30.6239 38.4 30.4 38.6239 30.4 38.9C30.4 39.1762 30.6239 39.4 30.9 39.4Z" fill="#428BC1"/>
<path d="M32.3 39C32.3 38.7 32.5001 38.5 32.7001 38.4C33.0001 38.4 33.2 38.6 33.3 38.8C33.3 39.1 33.1001 39.3 32.9001 39.4C32.5001 39.5 32.3 39.3 32.3 39Z" fill="#428BC1"/>
<path d="M34.5 39C34.7761 39 35 38.7761 35 38.5C35 38.2239 34.7761 38 34.5 38C34.2239 38 34 38.2239 34 38.5C34 38.7761 34.2239 39 34.5 39Z" fill="#428BC1"/>
<path d="M36.1 38.1C36.3761 38.1 36.6 37.8761 36.6 37.6C36.6 37.3238 36.3761 37.1 36.1 37.1C35.8238 37.1 35.6 37.3238 35.6 37.6C35.6 37.8761 35.8238 38.1 36.1 38.1Z" fill="#428BC1"/>
<path d="M37.4 36.8C37.6762 36.8 37.9 36.5762 37.9 36.3C37.9 36.0239 37.6762 35.8 37.4 35.8C37.1239 35.8 36.9 36.0239 36.9 36.3C36.9 36.5762 37.1239 36.8 37.4 36.8Z" fill="#428BC1"/>
<path d="M38.3 35.2C38.5762 35.2 38.8 34.9761 38.8 34.7C38.8 34.4238 38.5762 34.2 38.3 34.2C38.0239 34.2 37.8 34.4238 37.8 34.7C37.8 34.9761 38.0239 35.2 38.3 35.2Z" fill="#428BC1"/>
<path d="M38.8 33.4C39.0762 33.4 39.3 33.1762 39.3 32.9C39.3 32.6239 39.0762 32.4 38.8 32.4C38.5239 32.4 38.3 32.6239 38.3 32.9C38.3 33.1762 38.5239 33.4 38.8 33.4Z" fill="#428BC1"/>
<path d="M38.8001 31.6C38.5001 31.6 38.3001 31.4 38.2001 31.2C38.2001 30.9 38.4001 30.7 38.6001 30.6C38.9001 30.6 39.1001 30.8 39.2001 31C39.3001 31.3 39.1001 31.5 38.8001 31.6Z" fill="#428BC1"/>
<path d="M38.3 29.8C38.5762 29.8 38.8 29.5762 38.8 29.3C38.8 29.0239 38.5762 28.8 38.3 28.8C38.0239 28.8 37.8 29.0239 37.8 29.3C37.8 29.5762 38.0239 29.8 38.3 29.8Z" fill="#428BC1"/>
<path d="M37.4 28.2C37.6762 28.2 37.9 27.9761 37.9 27.7C37.9 27.4238 37.6762 27.2 37.4 27.2C37.1239 27.2 36.9 27.4238 36.9 27.7C36.9 27.9761 37.1239 28.2 37.4 28.2Z" fill="#428BC1"/>
<path d="M36.1 26.9C36.3761 26.9 36.6 26.6762 36.6 26.4C36.6 26.1239 36.3761 25.9 36.1 25.9C35.8238 25.9 35.6 26.1239 35.6 26.4C35.6 26.6762 35.8238 26.9 36.1 26.9Z" fill="#428BC1"/>
<path d="M35 25.7C34.9 26 34.6 26.1 34.3 26C34 25.9 33.9 25.6 34 25.3C34.1 25 34.4 24.9 34.7 25C35 25.2 35.1 25.5 35 25.7Z" fill="#428BC1"/>
<path d="M33.2001 25.1C33.2001 25.4 32.9001 25.6 32.6001 25.5C32.3001 25.5 32.1001 25.2 32.2001 24.9C32.2001 24.6 32.5001 24.4 32.8001 24.5C33.1001 24.6 33.3001 24.9 33.2001 25.1Z" fill="#428BC1"/>
<path d="M31.4 25C31.4 25.3 31.2 25.5 31 25.6C30.7 25.6 30.5 25.4 30.4 25.2C30.4 24.9 30.6 24.7 30.8 24.6C31.1 24.5 31.4 24.7 31.4 25Z" fill="#428BC1"/>
<path d="M31.8 33.5C32.6285 33.5 33.3 32.8284 33.3 32C33.3 31.1716 32.6285 30.5 31.8 30.5C30.9716 30.5 30.3 31.1716 30.3 32C30.3 32.8284 30.9716 33.5 31.8 33.5Z" fill="#428BC1"/>
<path d="M31.8 25L31.6 29.3L31.8 32L32.1 29.3L31.8 25Z" fill="#428BC1"/>
<path d="M30 25.2L30.9 29.5L31.8 32L31.4 29.2999L30 25.2Z" fill="#428BC1"/>
<path d="M28.3 25.9L30.3 29.8L31.8 32L30.7001 29.5L28.3 25.9Z" fill="#428BC1"/>
<path d="M26.9 27L29.8 30.3L31.8 32L30.1 29.9L26.9 27Z" fill="#428BC1"/>
<path d="M25.8 28.5L29.4 30.9L31.8 32L29.6 30.4L25.8 28.5Z" fill="#428BC1"/>
<path d="M25.1 30.2L29.2 31.5L31.8 32L29.3 31.1L25.1 30.2Z" fill="#428BC1"/>
<path d="M24.8 32L29.2001 32.2001L31.8 32L29.2001 31.8L24.8 32Z" fill="#428BC1"/>
<path d="M25.1 33.8L29.3 32.9L31.8 32L29.2 32.5L25.1 33.8Z" fill="#428BC1"/>
<path d="M25.8 35.5L29.6 33.6L31.8 32L29.4 33.1L25.8 35.5Z" fill="#428BC1"/>
<path d="M26.9 36.9L30.1 34.1L31.8 32L29.8 33.7L26.9 36.9Z" fill="#428BC1"/>
<path d="M28.3 38.1L30.7001 34.4L31.8 32L30.3 34.2L28.3 38.1Z" fill="#428BC1"/>
<path d="M30 38.8L31.4 34.7L31.8 32L30.9 34.5L30 38.8Z" fill="#428BC1"/>
<path d="M31.8 39L32.1 34.7L31.8 32L31.6 34.7L31.8 39Z" fill="#428BC1"/>
<path d="M33.6 38.8L32.8 34.5L31.8 32L32.3 34.7L33.6 38.8Z" fill="#428BC1"/>
<path d="M35.3 38.1L33.4001 34.2L31.8 32L33 34.5L35.3 38.1Z" fill="#428BC1"/>
<path d="M36.8 36.9L33.9001 33.7L31.8 32L33.6 34.1L36.8 36.9Z" fill="#428BC1"/>
<path d="M37.9001 35.5L34.3 33.1L31.8 32L34 33.6L37.9001 35.5Z" fill="#428BC1"/>
<path d="M38.6 33.8L34.5 32.5L31.8 32L34.4001 32.9L38.6 33.8Z" fill="#428BC1"/>
<path d="M38.8 32L34.5 31.7L31.8 32L34.5 32.2L38.8 32Z" fill="#428BC1"/>
<path d="M38.6 30.2L34.4001 31.1L31.8 32L34.5 31.5L38.6 30.2Z" fill="#428BC1"/>
<path d="M37.9001 28.5L34 30.4L31.8 32L34.3 30.9L37.9001 28.5Z" fill="#428BC1"/>
<path d="M36.8 27.1L33.6 29.9L31.8 32L33.9001 30.3L36.8 27.1Z" fill="#428BC1"/>
<path d="M35.3 25.9L33 29.6L31.8 32L33.4001 29.8L35.3 25.9Z" fill="#428BC1"/>
<path d="M33.7001 25.2L32.3 29.2999L31.8 32L32.8 29.5L33.7001 25.2Z" fill="#428BC1"/>
</svg>
