<svg width="26" height="27" viewBox="0 0 26 27" fill="none" xmlns="http://www.w3.org/2000/svg">
<g clip-path="url(#clip0_1525_4054)">
<path d="M13 25.6875C19.731 25.6875 25.1875 20.231 25.1875 13.5C25.1875 6.76903 19.731 1.3125 13 1.3125C6.26903 1.3125 0.8125 6.76903 0.8125 13.5C0.8125 20.231 6.26903 25.6875 13 25.6875Z" fill="#ED4C5C"/>
<path d="M8.9375 12.0375L12.1875 14.3125L10.9688 10.575L14.2188 8.21875H10.1969L8.9375 4.5625L7.71875 8.21875H3.65625L6.90625 10.575L5.6875 14.3125L8.9375 12.0375Z" fill="#FFE62E"/>
<path d="M14.3406 14.8406L13.4062 15.0437L14.3 15.4094V16.3438L14.9094 15.6531L15.8031 15.9781L15.275 15.2063L15.8438 14.475L14.9094 14.6781L14.3406 13.9062V14.8406Z" fill="#FFE62E"/>
<path d="M15.7219 12.0781L15.0312 12.6875L15.9656 12.6062L16.3719 13.5L16.5344 12.5656L17.4688 12.4844L16.6562 11.9969L16.8594 11.0625L16.1687 11.6719L15.3562 11.1844L15.7219 12.0781Z" fill="#FFE62E"/>
<path d="M15.9656 8.90938L16.25 9.84375L16.5344 8.95H17.4688L16.7375 8.38125L17.0219 7.44688L16.25 8.01562L15.5188 7.40625L15.8031 8.34062L15.0312 8.86875L15.9656 8.90938Z" fill="#FFE62E"/>
<path d="M14.3406 5.65937V6.59375L14.9094 5.82188L15.8438 6.025L15.275 5.29375L15.8031 4.52187L14.9094 4.8875L14.3 4.15625V5.09063L13.4062 5.45625L14.3406 5.65937Z" fill="#FFE62E"/>
</g>
<defs>
<clipPath id="clip0_1525_4054">
<rect width="26" height="26" fill="white" transform="translate(0 0.5)"/>
</clipPath>
</defs>
</svg>
