<svg width="26" height="27" viewBox="0 0 26 27" fill="none" xmlns="http://www.w3.org/2000/svg">
<g clip-path="url(#clip0_1525_4135)">
<path d="M12.9595 25.6875C19.6904 25.6875 25.147 20.231 25.147 13.5C25.147 6.76903 19.6904 1.3125 12.9595 1.3125C6.2285 1.3125 0.771973 6.76903 0.771973 13.5C0.771973 20.231 6.2285 25.6875 12.9595 25.6875Z" fill="#ED4C5C"/>
<path d="M12.1471 11.7938C12.4314 11.0625 13.1221 10.9406 13.4877 10.0063C13.6502 9.60001 13.3658 8.78751 13.5283 8.38126C13.8939 7.44689 14.8283 7.60939 14.8283 7.60939C13.1627 7.00001 11.2939 7.85314 10.6846 9.47814C10.0752 11.1031 10.9283 12.9313 12.5939 13.5C12.1471 13.0125 11.9033 12.4438 12.1471 11.7938Z" fill="white"/>
<path d="M12.3095 9.51876C12.5114 9.51876 12.6751 9.35506 12.6751 9.15313C12.6751 8.9512 12.5114 8.78751 12.3095 8.78751C12.1075 8.78751 11.9438 8.9512 11.9438 9.15313C11.9438 9.35506 12.1075 9.51876 12.3095 9.51876Z" fill="#ED4C5C"/>
<path d="M10.7657 13.4187C10.1563 12.9312 10.2376 12.2406 9.42507 11.6312C9.05945 11.3469 8.20632 11.3875 7.8407 11.1031C7.0282 10.4938 7.5157 9.64062 7.5157 9.64062C6.41882 11.0219 6.66257 13.0125 8.08445 14.0688C9.4657 15.125 11.4969 14.8812 12.5938 13.5406C11.9438 13.7844 11.3344 13.825 10.7657 13.4187Z" fill="white"/>
<path d="M8.4501 12.85C8.65203 12.85 8.81572 12.6863 8.81572 12.4844C8.81572 12.2824 8.65203 12.1187 8.4501 12.1187C8.24817 12.1187 8.08447 12.2824 8.08447 12.4844C8.08447 12.6863 8.24817 12.85 8.4501 12.85Z" fill="#ED4C5C"/>
<path d="M11.9438 15.2062C11.2938 15.6531 10.6438 15.3281 9.79072 15.8969C9.4251 16.1406 9.18135 16.9531 8.81572 17.1969C7.9626 17.7656 7.27197 17.075 7.27197 17.075C8.24697 18.5375 10.2782 18.9031 11.7407 17.9281C13.2032 16.9531 13.6095 15.0031 12.6345 13.5406C12.6751 14.2312 12.5126 14.8 11.9438 15.2062Z" fill="white"/>
<path d="M10.1563 16.8719C10.2782 16.7094 10.5219 16.6687 10.6844 16.7906C10.8469 16.9125 10.8876 17.1562 10.7657 17.3187C10.6438 17.4812 10.4001 17.5219 10.2376 17.4C10.0751 17.2781 10.0344 17.0344 10.1563 16.8719Z" fill="#ED4C5C"/>
<path d="M14.0157 14.6781C14.2188 15.4094 13.7313 15.9375 14.0157 16.9125C14.1376 17.3187 14.8282 17.8062 14.9501 18.2531C15.2345 19.2281 14.3407 19.6344 14.3407 19.6344C16.047 19.1469 17.022 17.4 16.5345 15.7344C16.047 14.0687 14.2595 13.0937 12.5532 13.5812C13.2845 13.7031 13.8126 13.9875 14.0157 14.6781Z" fill="white"/>
<path d="M15.275 16.8313C15.1531 16.6688 15.1937 16.425 15.3562 16.3031C15.5187 16.1813 15.7625 16.2219 15.8843 16.3844C16.0062 16.5469 15.9656 16.7906 15.8031 16.9125C15.6 17.075 15.3968 17.0344 15.275 16.8313Z" fill="#ED4C5C"/>
<path d="M14.1375 12.5656C14.95 12.6063 15.275 13.2156 16.2906 13.2563C16.7375 13.2563 17.4281 12.7688 17.875 12.7688C18.8906 12.8094 19.0125 13.7438 19.0125 13.7438C19.0937 11.9969 17.6719 10.5344 15.925 10.4938C14.1375 10.4531 12.675 11.7938 12.5938 13.5406C12.9594 12.9313 13.4469 12.525 14.1375 12.5656Z" fill="white"/>
<path d="M16.8186 12.0781C16.6155 12.1594 16.4124 12.0375 16.3311 11.8344C16.2499 11.6312 16.3717 11.4281 16.5749 11.3469C16.778 11.2656 16.9811 11.3875 17.0624 11.5906C17.1436 11.7937 17.0217 12.0375 16.8186 12.0781Z" fill="#ED4C5C"/>
</g>
<defs>
<clipPath id="clip0_1525_4135">
<rect width="26" height="26" fill="white" transform="translate(0 0.5)"/>
</clipPath>
</defs>
</svg>
