<svg width="26" height="27" viewBox="0 0 26 27" fill="none" xmlns="http://www.w3.org/2000/svg">
<g clip-path="url(#clip0_1525_4127)">
<path d="M12.9592 1.3125C7.67793 1.3125 3.16855 4.725 1.50293 9.4375H24.4967C22.7904 4.725 18.2811 1.3125 12.9592 1.3125Z" fill="#F9F9F9"/>
<path d="M12.9592 25.6875C18.2811 25.6875 22.7904 22.275 24.4561 17.5625H1.50293C3.16855 22.3156 7.67793 25.6875 12.9592 25.6875Z" fill="#ED4C5C"/>
<path d="M1.50313 9.4375C1.05625 10.6969 0.8125 12.0781 0.8125 13.5C0.8125 14.9219 1.05625 16.3031 1.50313 17.5625H24.4969C24.9437 16.3031 25.1875 14.9219 25.1875 13.5C25.1875 12.0781 24.9437 10.6969 24.4969 9.4375H1.50313Z" fill="#428BC1"/>
</g>
<defs>
<clipPath id="clip0_1525_4127">
<rect width="26" height="26" fill="white" transform="translate(0 0.5)"/>
</clipPath>
</defs>
</svg>
