<svg width="26" height="27" viewBox="0 0 26 27" fill="none" xmlns="http://www.w3.org/2000/svg">
<g clip-path="url(#clip0_1525_4152)">
<path d="M13 25.6875C19.731 25.6875 25.1875 20.231 25.1875 13.5C25.1875 6.76903 19.731 1.3125 13 1.3125C6.26903 1.3125 0.8125 6.76903 0.8125 13.5C0.8125 20.231 6.26903 25.6875 13 25.6875Z" fill="#F5F5F5"/>
<path d="M9.50632 14.1906C10.6438 14.9625 12.2282 14.6375 13.0001 13.5C13.7719 12.3625 15.3157 12.0375 16.4938 12.8094C17.5907 13.5406 17.9157 14.9625 17.3063 16.0594C18.6469 13.7844 18.0376 10.8187 15.7626 9.31561C13.4469 7.77186 10.3188 8.38124 8.77507 10.6969C8.73444 10.7781 8.69382 10.8594 8.65319 10.9C8.08444 12.0781 8.45007 13.4594 9.50632 14.1906Z" fill="#ED4C5C"/>
<path d="M16.4939 12.8094C15.3564 12.0375 13.7721 12.3625 13.0002 13.5C12.2283 14.6375 10.6846 14.9625 9.50644 14.1906C8.40956 13.4594 8.08456 12.0375 8.69394 10.9406C7.31269 13.2156 7.96269 16.1812 10.2377 17.6844C12.5533 19.2281 15.6814 18.6187 17.2252 16.3031C17.2658 16.2219 17.3064 16.1406 17.3471 16.1C17.9158 14.9219 17.5502 13.5406 16.4939 12.8094Z" fill="#428BC1"/>
<path d="M3.16885 9.96562L5.97197 5.78124L5.6876 5.57812L5.40322 5.41562L2.6001 9.59999L2.88447 9.76249L3.16885 9.96562ZM3.94072 10.4937L4.2251 10.6562L6.9876 6.47187L6.74385 6.30937L6.45947 6.10624L3.65635 10.2906L3.94072 10.4937ZM7.4751 6.79687L4.7126 10.9812L4.99697 11.1844L5.28135 11.3469L8.04385 7.16249L7.75947 6.99999L7.4751 6.79687ZM19.7032 17.7656L19.9876 17.9687L21.2876 16.0187L21.0032 15.8156L20.7188 15.6531L19.4188 17.6031L19.7032 17.7656ZM22.8313 17.0344L21.5313 18.9844L21.8157 19.1875L22.1001 19.35L23.4001 17.4L23.1157 17.2375L22.8313 17.0344ZM21.0438 18.6594L22.3438 16.7094L22.0595 16.5062L21.7751 16.3437L20.4751 18.2937L20.7595 18.4562L21.0438 18.6594ZM19.5407 18.05L19.2563 17.8875L17.9563 19.8375L18.2407 20L18.5251 20.2031L19.8251 18.2531L19.5407 18.05ZM20.5563 18.7406L20.3126 18.5781L19.0126 20.5281L19.2563 20.6906L19.5407 20.8937L20.8407 18.9437L20.5563 18.7406ZM21.3282 19.2687L20.0282 21.2187L20.3126 21.4219L20.597 21.5844L21.897 19.6344L21.6126 19.4312L21.3282 19.2687ZM2.88447 17.2375L2.6001 17.4L5.40322 21.5844L5.6876 21.4219L5.97197 21.2187L3.16885 17.0344L2.88447 17.2375ZM5.44385 18.7406L5.15947 18.9437L6.45947 20.8937L6.74385 20.6906L6.9876 20.5281L5.6876 18.5781L5.44385 18.7406ZM4.99697 15.8156L4.7126 16.0187L7.4751 20.2031L7.75947 20L8.04385 19.8375L5.28135 15.6531L4.99697 15.8156ZM3.65635 16.7094L4.95635 18.6594L5.24072 18.4562L5.5251 18.2937L4.2251 16.3437L3.94072 16.5062L3.65635 16.7094ZM21.6126 7.56874L21.897 7.36562L20.597 5.41562L20.3126 5.57812L20.0282 5.78124L21.3282 7.73124L21.6126 7.56874ZM19.5407 8.94999L19.8251 8.74687L18.5251 6.79687L18.2407 6.99999L17.9563 7.16249L19.2563 9.11249L19.5407 8.94999ZM21.5313 8.01562L22.8313 9.96562L23.1157 9.76249L23.4001 9.59999L22.1001 7.64999L21.8157 7.81249L21.5313 8.01562ZM22.0595 10.4937L22.3438 10.2906L19.5407 6.10624L19.2563 6.30937L19.0126 6.47187L21.7751 10.6562L22.0595 10.4937ZM21.0032 11.1844L21.2876 10.9812L19.9876 9.03124L19.7032 9.23437L19.4188 9.39687L20.7188 11.3469L21.0032 11.1844Z" fill="#3E4347"/>
</g>
<defs>
<clipPath id="clip0_1525_4152">
<rect width="26" height="26" fill="white" transform="translate(0 0.5)"/>
</clipPath>
</defs>
</svg>
