<svg width="26" height="27" viewBox="0 0 26 27" fill="none" xmlns="http://www.w3.org/2000/svg">
<g clip-path="url(#clip0_1525_4100)">
<path d="M13 1.3125V13.5H0.8125C0.8125 20.2438 6.25625 25.6875 13 25.6875C19.7438 25.6875 25.1875 20.2438 25.1875 13.5C25.1875 6.75625 19.7438 1.3125 13 1.3125Z" fill="#ED4C5C"/>
<path d="M13 1.3125C6.25625 1.3125 0.8125 6.75625 0.8125 13.5H13V1.3125Z" fill="#2A5F9E"/>
<path d="M9.75 8.74687L11.7812 8.21875L9.75 7.69063L11.2531 6.1875L9.22188 6.71563L9.75 4.68438L8.24687 6.1875L7.71875 4.15625L7.19063 6.1875L5.6875 4.68438L6.21563 6.71563L4.18438 6.1875L5.6875 7.69063L3.65625 8.21875L5.6875 8.74687L4.18438 10.25L6.21563 9.72188L5.6875 11.7531L7.19063 10.25L7.71875 12.2812L8.24687 10.25L9.75 11.7531L9.22188 9.72188L11.2531 10.25L9.75 8.74687Z" fill="#DBE4F2"/>
<path d="M7.71895 10.5344C8.99783 10.5344 10.0346 9.49765 10.0346 8.21876C10.0346 6.93988 8.99783 5.90314 7.71895 5.90314C6.44006 5.90314 5.40332 6.93988 5.40332 8.21876C5.40332 9.49765 6.44006 10.5344 7.71895 10.5344Z" fill="#428BC1"/>
<path d="M7.71875 10.25C8.84058 10.25 9.75 9.34058 9.75 8.21875C9.75 7.09692 8.84058 6.1875 7.71875 6.1875C6.59692 6.1875 5.6875 7.09692 5.6875 8.21875C5.6875 9.34058 6.59692 10.25 7.71875 10.25Z" fill="#DBE4F2"/>
</g>
<defs>
<clipPath id="clip0_1525_4100">
<rect width="26" height="26" fill="white" transform="translate(0 0.5)"/>
</clipPath>
</defs>
</svg>
