<svg width="27" height="27" viewBox="0 0 27 27" fill="none" xmlns="http://www.w3.org/2000/svg">
<path d="M20 3.18125C18.0906 2.00312 15.8969 1.3125 13.5 1.3125V3.18125H20Z" fill="#ED4C5C"/>
<path d="M13.5 5.05002H22.275C21.5844 4.3594 20.8125 3.7094 20 3.18127H13.5V5.05002Z" fill="#DBE4F2"/>
<path d="M13.5 6.91874H23.7781C23.3312 6.22811 22.8438 5.61874 22.3156 5.04999H13.5V6.91874Z" fill="#ED4C5C"/>
<path d="M13.5 8.78751H24.7531C24.4688 8.13751 24.1437 7.48751 23.7781 6.91876H13.5V8.78751Z" fill="#DBE4F2"/>
<path d="M13.5 10.6562H25.3625C25.2 10.0062 24.9969 9.39685 24.7531 8.78748H13.5V10.6562Z" fill="#ED4C5C"/>
<path d="M13.5 12.5656H25.6469C25.6063 11.9156 25.4844 11.3063 25.3625 10.6969H13.5V12.5656" fill="#DBE4F2"/>
<path d="M25.6469 12.5656H13.5V13.5H1.3125C1.3125 13.825 1.3125 14.1094 1.35312 14.4344H25.6469C25.6875 14.1094 25.6875 13.825 25.6875 13.5C25.6875 13.175 25.6875 12.85 25.6469 12.5656" fill="#ED4C5C"/>
<path d="M1.6374 16.3031H25.3624C25.5249 15.6938 25.6062 15.0844 25.6468 14.4344H1.35303C1.39365 15.0438 1.4749 15.6938 1.6374 16.3031Z" fill="#DBE4F2"/>
<path d="M2.24707 18.1718H24.7533C24.9971 17.5625 25.2002 16.9531 25.3627 16.3031H1.6377C1.8002 16.9531 2.00332 17.5625 2.24707 18.1718Z" fill="#ED4C5C"/>
<path d="M3.22207 20.0406H23.7783C24.1439 19.4312 24.4689 18.8219 24.7533 18.1719H2.24707C2.53145 18.8219 2.85645 19.4312 3.22207 20.0406" fill="#DBE4F2"/>
<path d="M4.68418 21.9094H22.3154C22.8436 21.3406 23.3717 20.6906 23.7779 20.0406H3.22168C3.62793 20.7313 4.15605 21.3406 4.68418 21.9094Z" fill="#ED4C5C"/>
<path d="M6.95957 23.7781H20.0408C20.8939 23.25 21.6252 22.6 22.3158 21.9094H4.68457C5.3752 22.6406 6.14707 23.25 6.95957 23.7781Z" fill="#DBE4F2"/>
<path d="M13.5001 25.6875C15.897 25.6875 18.1313 24.9969 20.0407 23.7781H6.95947C8.86885 24.9969 11.1032 25.6875 13.5001 25.6875Z" fill="#ED4C5C"/>
<path d="M7 3.18125C6.14688 3.70937 5.375 4.35937 4.68438 5.05C4.11563 5.61875 3.62812 6.26875 3.22187 6.91875C2.85625 7.52813 2.49063 8.1375 2.24688 8.7875C2.00313 9.39687 1.8 10.0062 1.6375 10.6562C1.475 11.2656 1.39375 11.875 1.35312 12.525C1.3125 12.85 1.3125 13.175 1.3125 13.5H13.5V1.3125C11.1031 1.3125 8.90937 2.00312 7 3.18125Z" fill="#428BC1"/>
<path d="M10.6562 1.71875L10.8594 2.32812H11.4688L10.9812 2.73438L11.1438 3.34375L10.6562 2.97812L10.1687 3.34375L10.3313 2.73438L9.84375 2.32812H10.4531L10.6562 1.71875Z" fill="#DBE4F2"/>
<path d="M12.2812 4.15625L12.4844 4.76562H13.0938L12.6062 5.17188L12.7688 5.78125L12.2812 5.41563L11.7937 5.78125L11.9563 5.17188L11.4688 4.76562H12.0781L12.2812 4.15625Z" fill="#DBE4F2"/>
<path d="M9.03125 4.15625L9.23437 4.76562H9.84375L9.35625 5.17188L9.51875 5.78125L9.03125 5.41563L8.54375 5.78125L8.70625 5.17188L8.21875 4.76562H8.82812L9.03125 4.15625Z" fill="#DBE4F2"/>
<path d="M10.6562 6.59375L10.8594 7.20312H11.4688L10.9812 7.60938L11.1438 8.21875L10.6562 7.85313L10.1687 8.21875L10.3313 7.60938L9.84375 7.20312H10.4531L10.6562 6.59375Z" fill="#DBE4F2"/>
<path d="M7.40625 6.59375L7.60938 7.20312H8.21875L7.73125 7.60938L7.89375 8.21875L7.40625 7.85313L6.91875 8.21875L7.08125 7.60938L6.59375 7.20312H7.20312L7.40625 6.59375Z" fill="#DBE4F2"/>
<path d="M4.15625 6.59375L4.35938 7.20312H4.96875L4.48125 7.60938L4.64375 8.21875L4.15625 7.85313L3.66875 8.21875L3.83125 7.60938L3.34375 7.20312H3.95312L4.15625 6.59375Z" fill="#DBE4F2"/>
<path d="M12.2812 9.03125L12.4844 9.64062H13.0938L12.6062 10.0469L12.7688 10.6562L12.2812 10.2906L11.7937 10.6562L11.9563 10.0469L11.4688 9.64062H12.0781L12.2812 9.03125Z" fill="#DBE4F2"/>
<path d="M9.03125 9.03125L9.23437 9.64062H9.84375L9.35625 10.0469L9.51875 10.6562L9.03125 10.2906L8.54375 10.6562L8.70625 10.0469L8.21875 9.64062H8.82812L9.03125 9.03125Z" fill="#DBE4F2"/>
<path d="M5.78125 9.03125L5.98438 9.64062H6.59375L6.10625 10.0469L6.26875 10.6562L5.78125 10.2906L5.29375 10.6562L5.45625 10.0469L4.96875 9.64062H5.57812L5.78125 9.03125Z" fill="#DBE4F2"/>
<path d="M10.6562 11.4688L10.8594 12.0781H11.4688L10.9812 12.4844L11.1438 13.0938L10.6562 12.7281L10.1687 13.0938L10.3313 12.4844L9.84375 12.0781H10.4531L10.6562 11.4688Z" fill="#DBE4F2"/>
<path d="M7.40625 11.4688L7.60938 12.0781H8.21875L7.73125 12.4844L7.89375 13.0938L7.40625 12.7281L6.91875 13.0938L7.08125 12.4844L6.59375 12.0781H7.20312L7.40625 11.4688Z" fill="#DBE4F2"/>
<path d="M4.15625 11.4688L4.35938 12.0781H4.96875L4.48125 12.4844L4.64375 13.0938L4.15625 12.7281L3.66875 13.0938L3.83125 12.4844L3.34375 12.0781H3.95312L4.15625 11.4688Z" fill="#DBE4F2"/>
<path d="M5.29365 5.78125L5.78115 5.41563L6.26865 5.78125L6.06553 5.17188L6.55303 4.76562H5.94365L5.78115 4.15625L5.57803 4.76562H5.00928L5.49678 5.13125L5.29365 5.78125" fill="#DBE4F2"/>
<path d="M2.04385 10.6562L2.53135 10.2906L3.01885 10.6562L2.81572 10.0469L3.30322 9.64062H2.73447L2.53135 9.03125L2.32822 9.64062H1.92197C1.92197 9.68125 1.88135 9.72187 1.88135 9.7625L2.20635 10.0062L2.04385 10.6562" fill="#DBE4F2"/>
</svg>
