<svg width="11" height="12" viewBox="0 0 11 12" fill="none" xmlns="http://www.w3.org/2000/svg">
<path d="M4.52394 11.2907C4.38915 11.1559 4.31342 10.9731 4.31342 10.7825L4.31342 2.45503L1.22855 5.54135C1.09359 5.67631 0.910539 5.75213 0.719673 5.75213C0.528808 5.75213 0.34576 5.67631 0.210798 5.54135C0.0758362 5.40638 1.52588e-05 5.22334 1.52588e-05 5.03247C1.52588e-05 4.84161 0.0758362 4.65856 0.210798 4.5236L4.5233 0.211096C4.59006 0.144161 4.66938 0.0910549 4.7567 0.054821C4.84402 0.0185871 4.93763 -6.29425e-05 5.03217 -6.29425e-05C5.12671 -6.29425e-05 5.22032 0.0185871 5.30765 0.054821C5.39497 0.0910549 5.47428 0.144161 5.54105 0.211096L9.85355 4.5236C9.98851 4.65856 10.0643 4.84161 10.0643 5.03247C10.0643 5.22334 9.98851 5.40638 9.85355 5.54135C9.71859 5.67631 9.53554 5.75213 9.34467 5.75213C9.15381 5.75213 8.97076 5.67631 8.8358 5.54135L5.75092 2.45503L5.75092 10.7825C5.75092 10.9731 5.6752 11.1559 5.54041 11.2907C5.40561 11.4255 5.2228 11.5012 5.03217 11.5012C4.84155 11.5012 4.65873 11.4255 4.52394 11.2907Z" fill="#D4D4D4"/>
</svg>
