<svg xmlns="http://www.w3.org/2000/svg" width="102.4mm" height="92.7mm" viewBox="0 0 290.3 262.8"><defs><style>.cls-1{fill:#c72222;}</style></defs><title>Fichier 2</title><g id="Calque_2" data-name="Calque 2"><g id="Calque_1-2" data-name="Calque 1"><path class="cls-1" d="M127.9,0h35.8V27.5h94.9l-8.2,31.7H163.7V89.4H290.3L282,121.1H8.3l-1.4-9.7L0,89.4H127.9V59.2H42.6c-.9,0-2.7-5.5-5.5-16.6L31.6,27.5h96.3Zm73,126.6v19.2h66l-8.3,33.1H200.9v83.9H132.1l-8.3-31.7h35.8V178.9H33l-8.2-33.1H159.6V126.6Z"/><path class="cls-1" d="M106.4,202.7a62.2,62.2,0,0,0-5,5.5c-3.4,4-3.3,8.7-3,13.5.1,2.8,1.4,5.1,2.5,7.6a18.5,18.5,0,0,1,1.2,3.3c-1.9-1.5-3.1-3.7-4.8-5.3-8-7.2-12.9-8-22.1-4.3a2.5,2.5,0,0,1-1.3.3c3.7-4,7.8-7.8,8.1-13.6s-1.6-10.6-4.1-15.5c1.7.8,1.6.9,3.7,3.5a23,23,0,0,0,10.2,7.2c4.4,1.6,8.5,0,12.6-1.8A2.3,2.3,0,0,1,106.4,202.7Z"/></g></g></svg>