<svg xmlns="http://www.w3.org/2000/svg" width="277.1mm" height="96mm" viewBox="0 0 785.5 272.2"><defs><style>.cls-1{fill:#d4d4d5;}.cls-2{fill:#c72222;}</style></defs><title>kinoji_txt</title><g id="Calque_2" data-name="Calque 2"><g id="Calque_1-2" data-name="Calque 1"><path class="cls-1" d="M7.4,316.5V55.8H40.2V182.1L81.9,55.8h32.8L77.1,170.5l46.9,146H90.5L59.6,216.7,40.2,268.8v47.7Z" transform="translate(-7.4 -49.5)"/><path class="cls-1" d="M138.5,316.5V283.7h14.1V88.6H138.5V55.8h61.1V88.6H185.4V283.7h14.2v32.8Z" transform="translate(-7.4 -49.5)"/><path class="cls-1" d="M309.4,198.4l-49.5-79.6V316.5H227.5V56.6h32.4l49.5,80v-80h32.4V316.5H309.4Z" transform="translate(-7.4 -49.5)"/><path class="cls-1" d="M370.5,103.5c0-35,15.6-54,53.9-54s54,19,54,54V267.7c0,32.4-16.7,54-53.6,54s-54.3-19-54.3-54Zm53.9,185.4c13.8,0,21.3-7.1,21.3-22.3v-162c0-13-6-21.9-21.3-21.9s-21.2,8.9-21.2,21.9v162C403.2,280,408.8,288.9,424.4,288.9Z" transform="translate(-7.4 -49.5)"/><path class="cls-2" d="M630.6,53.6h35.8V81.1h94.9l-8.2,31.6H666.4V143H793l-8.3,31.7H510.9l-1.4-9.7-6.8-22H630.6V112.7H545.3c-.9,0-2.7-5.5-5.5-16.5l-5.5-15.1h96.3Zm72.9,126.6v19.2h66.1l-8.3,33H703.5v84H634.7l-8.2-31.7h35.8V232.4H535.7l-8.3-33H662.3V180.2Z" transform="translate(-7.4 -49.5)"/><path class="cls-2" d="M608.5,254.3c-2.1,2.7-3.5,5.3-5.1,7.8-3.4,5.6-2.3,11.3-1,17.1.8,3.3,2.8,6,4.7,8.8a17.2,17.2,0,0,1,2,3.8c-2.6-1.5-4.4-3.9-6.9-5.5-11.2-7.2-17.4-7.2-27.9-.8a4.5,4.5,0,0,1-1.4.6c3.7-5.6,7.8-11.1,7.1-18.3s-4.1-12.7-8.1-18.1c2.2.7,2.1.8,5.2,3.5A28,28,0,0,0,591,260c5.8,1,10.5-1.7,15-4.7A3.2,3.2,0,0,1,608.5,254.3Z" transform="translate(-7.4 -49.5)"/></g></g></svg>