<svg width="200" height="160" viewBox="0 0 200 160" fill="none" xmlns="http://www.w3.org/2000/svg">
<path d="M48 16C48 12.8174 49.2643 9.76515 51.5147 7.51472C53.7652 5.26428 56.8174 4 60 4H188C191.183 4 194.235 5.26428 196.485 7.51472C198.736 9.76515 200 12.8174 200 16C200 19.1826 198.736 22.2348 196.485 24.4853C194.235 26.7357 191.183 28 188 28H60C56.8174 28 53.7652 26.7357 51.5147 24.4853C49.2643 22.2348 48 19.1826 48 16ZM188 68H60.006C56.8234 68 53.7712 69.2643 51.5207 71.5147C49.2703 73.7652 48.006 76.8174 48.006 80C48.006 83.1826 49.2703 86.2348 51.5207 88.4853C53.7712 90.7357 56.8234 92 60.006 92H188C191.183 92 194.235 90.7357 196.485 88.4853C198.736 86.2348 200 83.1826 200 80C200 76.8174 198.736 73.7652 196.485 71.5147C194.235 69.2643 191.183 68 188 68ZM188 132H60.006C56.8234 132 53.7712 133.264 51.5207 135.515C49.2703 137.765 48.006 140.817 48.006 144C48.006 147.183 49.2703 150.235 51.5207 152.485C53.7712 154.736 56.8234 156 60.006 156H188C191.183 156 194.235 154.736 196.485 152.485C198.736 150.235 200 147.183 200 144C200 140.817 198.736 137.765 196.485 135.515C194.235 133.264 191.183 132 188 132ZM16 64C12.8355 64 9.74207 64.9384 7.11088 66.6965C4.4797 68.4546 2.42894 70.9534 1.21793 73.8771C0.0069325 76.8007 -0.309921 80.0177 0.307443 83.1214C0.924806 86.2251 2.44866 89.0761 4.6863 91.3137C6.92394 93.5513 9.77487 95.0752 12.8786 95.6926C15.9823 96.3099 19.1993 95.9931 22.1229 94.7821C25.0466 93.5711 27.5454 91.5203 29.3035 88.8891C31.0616 86.2579 32 83.1645 32 80C32 75.7565 30.3143 71.6869 27.3137 68.6863C24.3131 65.6857 20.2435 64 16 64ZM16 0C12.8355 0 9.74207 0.938385 7.11088 2.69649C4.4797 4.45459 2.42894 6.95345 1.21793 9.87706C0.0069325 12.8007 -0.309921 16.0177 0.307443 19.1214C0.924806 22.2251 2.44866 25.0761 4.6863 27.3137C6.92394 29.5513 9.77487 31.0752 12.8786 31.6926C15.9823 32.3099 19.1993 31.9931 22.1229 30.7821C25.0466 29.5711 27.5454 27.5203 29.3035 24.8891C31.0616 22.2579 32 19.1645 32 16C32 11.7565 30.3143 7.68687 27.3137 4.68629C24.3131 1.68571 20.2435 0 16 0ZM16 128C12.8355 128 9.74207 128.938 7.11088 130.696C4.4797 132.455 2.42894 134.953 1.21793 137.877C0.0069325 140.801 -0.309921 144.018 0.307443 147.121C0.924806 150.225 2.44866 153.076 4.6863 155.314C6.92394 157.551 9.77487 159.075 12.8786 159.693C15.9823 160.31 19.1993 159.993 22.1229 158.782C25.0466 157.571 27.5454 155.52 29.3035 152.889C31.0616 150.258 32 147.165 32 144C32 139.757 30.3143 135.687 27.3137 132.686C24.3131 129.686 20.2435 128 16 128Z" fill="#D4D4D4"/>
</svg>
