<svg width="50" height="36" viewBox="0 0 50 36" fill="none" xmlns="http://www.w3.org/2000/svg">
<mask id="path-1-inside-1_1543_25030" fill="white">
<path fill-rule="evenodd" clip-rule="evenodd" d="M3.39808e-06 35.7511C0.97563 35.9148 1.97786 36 3 36H32C41.9411 36 50 27.9411 50 18C50 8.05888 41.9411 0 32 0H3C1.97786 0 0.975626 0.0851964 3.17465e-07 0.248875C8.51314 1.67711 15 9.08101 15 18C15 26.919 8.51314 34.3229 3.39808e-06 35.7511Z"/>
</mask>
<path d="M3.08062e-06 35.7511L-0.0827249 35.258L-0.0827258 36.2442L3.08062e-06 35.7511ZM0 0.248875L-0.082728 -0.244233L-0.082728 0.741984L0 0.248875ZM3 35.5C2.00569 35.5 1.03113 35.4171 0.082732 35.258L-0.0827258 36.2442C0.920128 36.4125 1.95003 36.5 3 36.5V35.5ZM32 35.5H3V36.5H32V35.5ZM49.5 18C49.5 27.665 41.665 35.5 32 35.5V36.5C42.2173 36.5 50.5 28.2173 50.5 18H49.5ZM32 0.5C41.665 0.5 49.5 8.33502 49.5 18H50.5C50.5 7.78273 42.2173 -0.5 32 -0.5V0.5ZM3 0.5H32V-0.5H3V0.5ZM0.082728 0.741984C1.03113 0.582873 2.0057 0.5 3 0.5V-0.5C1.95003 -0.5 0.920124 -0.41248 -0.082728 -0.244233L0.082728 0.741984ZM-0.082728 0.741984C8.19356 2.13048 14.5 9.32926 14.5 18H15.5C15.5 8.83277 8.83272 1.22374 0.082728 -0.244233L-0.082728 0.741984ZM14.5 18C14.5 26.6707 8.19356 33.8695 -0.0827249 35.258L0.082731 36.2442C8.83272 34.7763 15.5 27.1672 15.5 18H14.5Z" fill="#3C4658" mask="url(#path-1-inside-1_1543_25030)"/>
<g clip-path="url(#clip0_1543_25030)">
<path d="M26.58 12.4363C26.58 12.1597 26.6875 11.8943 26.8788 11.6987C27.07 11.5031 27.3295 11.3932 27.6 11.3932H38.48C38.7505 11.3932 39.01 11.5031 39.2012 11.6987C39.3925 11.8943 39.5 12.1597 39.5 12.4363C39.5 12.713 39.3925 12.9784 39.2012 13.174C39.01 13.3696 38.7505 13.4795 38.48 13.4795H27.6C27.3295 13.4795 27.07 13.3696 26.8788 13.174C26.6875 12.9784 26.58 12.713 26.58 12.4363ZM38.48 16.9568H27.6005C27.33 16.9568 27.0705 17.0667 26.8793 17.2623C26.688 17.458 26.5805 17.7233 26.5805 18C26.5805 18.2767 26.688 18.542 26.8793 18.7376C27.0705 18.9333 27.33 19.0432 27.6005 19.0432H38.48C38.7505 19.0432 39.01 18.9333 39.2012 18.7376C39.3925 18.542 39.5 18.2767 39.5 18C39.5 17.7233 39.3925 17.458 39.2012 17.2623C39.01 17.0667 38.7505 16.9568 38.48 16.9568ZM38.48 22.5204H27.6005C27.33 22.5204 27.0705 22.6303 26.8793 22.826C26.688 23.0216 26.5805 23.287 26.5805 23.5636C26.5805 23.8403 26.688 24.1056 26.8793 24.3013C27.0705 24.4969 27.33 24.6068 27.6005 24.6068H38.48C38.7505 24.6068 39.01 24.4969 39.2012 24.3013C39.3925 24.1056 39.5 23.8403 39.5 23.5636C39.5 23.287 39.3925 23.0216 39.2012 22.826C39.01 22.6303 38.7505 22.5204 38.48 22.5204ZM23.86 16.6091C23.591 16.6091 23.3281 16.6907 23.1044 16.8435C22.8808 16.9963 22.7065 17.2136 22.6035 17.4677C22.5006 17.7219 22.4737 18.0015 22.5261 18.2713C22.5786 18.5411 22.7081 18.789 22.8983 18.9835C23.0885 19.178 23.3309 19.3105 23.5947 19.3642C23.8585 19.4178 24.1319 19.3903 24.3805 19.285C24.629 19.1797 24.8414 19.0015 24.9908 18.7727C25.1402 18.544 25.22 18.2751 25.22 18C25.22 17.6311 25.0767 17.2773 24.8217 17.0165C24.5666 16.7556 24.2207 16.6091 23.86 16.6091ZM23.86 11.0454C23.591 11.0454 23.3281 11.127 23.1044 11.2799C22.8808 11.4327 22.7065 11.6499 22.6035 11.9041C22.5006 12.1582 22.4737 12.4379 22.5261 12.7077C22.5786 12.9775 22.7081 13.2253 22.8983 13.4199C23.0885 13.6144 23.3309 13.7469 23.5947 13.8005C23.8585 13.8542 24.1319 13.8267 24.3805 13.7214C24.629 13.6161 24.8414 13.4378 24.9908 13.2091C25.1402 12.9804 25.22 12.7114 25.22 12.4363C25.22 12.0675 25.0767 11.7137 24.8217 11.4528C24.5666 11.192 24.2207 11.0454 23.86 11.0454ZM23.86 22.1727C23.591 22.1727 23.3281 22.2543 23.1044 22.4071C22.8808 22.56 22.7065 22.7772 22.6035 23.0313C22.5006 23.2855 22.4737 23.5652 22.5261 23.835C22.5786 24.1048 22.7081 24.3526 22.8983 24.5471C23.0885 24.7417 23.3309 24.8741 23.5947 24.9278C23.8585 24.9815 24.1319 24.9539 24.3805 24.8487C24.629 24.7434 24.8414 24.5651 24.9908 24.3364C25.1402 24.1076 25.22 23.8387 25.22 23.5636C25.22 23.1947 25.0767 22.8409 24.8217 22.5801C24.5666 22.3193 24.2207 22.1727 23.86 22.1727Z" fill="#DBE4F2"/>
</g>
<defs>
<clipPath id="clip0_1543_25030">
<rect width="17" height="17" fill="white" transform="translate(22.5 9.5)"/>
</clipPath>
</defs>
</svg>
