<svg width="76" height="76" viewBox="0 0 76 76" fill="none" xmlns="http://www.w3.org/2000/svg">
<path d="M0.373447 38.3502C0.367054 43.1236 1.27287 47.8541 3.04215 52.2874L36.3808 18.9489L21.8095 4.37183C15.4022 7.44582 9.9919 12.2648 6.20008 18.2752C2.40826 24.2856 0.388764 31.2437 0.373447 38.3502V38.3502Z" fill="#DD0000"/>
<path d="M4.03918 54.5643C8.15638 63.1862 15.3962 69.9212 24.2926 73.4057C33.189 76.8903 43.0772 76.8637 51.9548 73.3316L18.6161 39.993L4.03918 54.5643Z" fill="#DD0000"/>
<path d="M75.6677 38.3502C75.6733 33.5788 74.7675 28.8503 72.999 24.4188L39.6603 57.7574L54.2315 72.3286C60.6397 69.2557 66.0508 64.437 69.8427 58.4264C73.6347 52.4157 75.6537 45.457 75.6677 38.3502V38.3502Z" fill="#DD0000"/>
<path d="M38.0177 0.70599C33.2461 0.697634 28.5171 1.6036 24.0863 3.37477L57.4249 36.7133L72.002 22.1364C68.9262 15.7297 64.1058 10.3203 58.0944 6.5296C52.083 2.73885 45.1245 0.720382 38.0177 0.70599V0.70599Z" fill="#DD0000"/>
</svg>
