<svg width="340" height="496" viewBox="0 0 340 496" fill="none" xmlns="http://www.w3.org/2000/svg">
<g opacity="0.5">
<path d="M-206 330.976C-206.056 372.944 -198.092 414.536 -182.536 453.515L110.583 160.396L-17.53 32.2318C-73.8642 59.2589 -121.433 101.628 -154.771 154.473C-188.109 207.318 -205.865 268.494 -206 330.976V330.976Z" fill="#1B222A"/>
<path d="M-173.772 473.533C-137.573 549.338 -73.9189 608.554 4.30005 639.191C82.519 669.827 169.457 669.594 247.511 638.539L-45.6086 345.42L-173.772 473.533Z" fill="#1B222A"/>
<path d="M456 330.976C456.05 289.025 448.086 247.451 432.536 208.489L139.416 501.607L267.529 629.721C323.871 602.703 371.446 560.336 404.786 507.489C438.126 454.642 455.877 393.461 456 330.976V330.976Z" fill="#1B222A"/>
<path d="M124.974 0.000503573C83.0212 -0.0729616 41.4429 7.89249 2.48689 23.4649L295.606 316.584L423.77 188.421C396.727 132.092 354.345 84.5316 301.492 51.2027C248.639 17.8738 187.458 0.127045 124.974 0.000503573V0.000503573Z" fill="#1B222A"/>
</g>
</svg>
