<svg width="267" height="457" viewBox="0 0 267 457" fill="none" xmlns="http://www.w3.org/2000/svg">
<g clip-path="url(#clip0_1428_3638)">
<g opacity="0.2">
<path d="M-199 261.98C-199.044 295.199 -192.74 328.121 -180.427 358.974L51.5881 126.959L-49.8185 25.5125C-94.4093 46.9055 -132.062 80.4425 -158.45 122.271C-184.839 164.1 -198.893 212.523 -199 261.98V261.98Z" fill="#3C4658"/>
<path d="M-173.489 374.82C-144.835 434.823 -94.451 481.694 -32.5376 505.944C29.3758 530.194 98.191 530.009 159.974 505.428L-72.0423 273.413L-173.489 374.82Z" fill="#3C4658"/>
<path d="M325 261.979C325.039 228.774 318.735 195.866 306.427 165.026L74.4115 397.041L175.818 498.447C220.415 477.062 258.072 443.527 284.462 401.696C310.852 359.866 324.903 311.438 325 261.979V261.979Z" fill="#3C4658"/>
<path d="M62.9798 0.000398597C29.7723 -0.0577519 -3.13856 6.24721 -33.9738 18.5734L198.042 250.588L299.488 149.142C278.083 104.556 244.536 66.9101 202.701 40.5289C160.866 14.1478 112.438 0.100561 62.9798 0.000398597V0.000398597Z" fill="#3C4658"/>
</g>
</g>
<defs>
<clipPath id="clip0_1428_3638">
<rect width="267" height="458" fill="white" transform="translate(0 -1)"/>
</clipPath>
</defs>
</svg>
