<svg width="10" height="10" viewBox="0 0 10 10" fill="none" xmlns="http://www.w3.org/2000/svg">
<path fillRule="evenodd" clipRule="evenodd" d="M0.9375 0.9375C0.85462 0.9375 0.775134 0.970424 0.716529 1.02903C0.657924 1.08763 0.625 1.16712 0.625 1.25V4.25C0.625 4.45519 0.665415 4.65837 0.743938 4.84794C0.822461 5.03751 0.937554 5.20976 1.08265 5.35485C1.37567 5.64788 1.7731 5.8125 2.1875 5.8125H8.30813L6.21625 7.90375C6.15757 7.96243 6.12461 8.04202 6.12461 8.125C6.12461 8.20798 6.15757 8.28757 6.21625 8.34625C6.27493 8.40493 6.35452 8.43789 6.4375 8.43789C6.52048 8.43789 6.60007 8.40493 6.65875 8.34625L9.28375 5.72125C9.31285 5.69222 9.33594 5.65774 9.3517 5.61977C9.36745 5.58181 9.37556 5.5411 9.37556 5.5C9.37556 5.4589 9.36745 5.41819 9.3517 5.38023C9.33594 5.34226 9.31285 5.30778 9.28375 5.27875L6.78375 2.77875C6.72507 2.72007 6.64548 2.68711 6.5625 2.68711C6.47952 2.68711 6.39993 2.72007 6.34125 2.77875C6.28257 2.83743 6.24961 2.91702 6.24961 3C6.24961 3.08298 6.28257 3.16257 6.34125 3.22125L8.30813 5.1875H2.1875C1.93886 5.1875 1.7004 5.08873 1.52459 4.91291C1.34877 4.7371 1.25 4.49864 1.25 4.25V1.25C1.25 1.16712 1.21708 1.08763 1.15847 1.02903C1.09987 0.970424 1.02038 0.9375 0.9375 0.9375V0.9375Z" fill="white"/>
</svg>
