<svg width="50" height="36" viewBox="0 0 50 36" fill="none" xmlns="http://www.w3.org/2000/svg">
<mask id="path-1-inside-1_1543_24021" fill="white">
<path fill-rule="evenodd" clip-rule="evenodd" d="M3.39808e-06 35.7511C0.97563 35.9148 1.97786 36 3 36H32C41.9411 36 50 27.9411 50 18C50 8.05888 41.9411 0 32 0H3C1.97786 0 0.975626 0.0851964 3.17465e-07 0.248875C8.51314 1.67711 15 9.08101 15 18C15 26.919 8.51314 34.3229 3.39808e-06 35.7511Z"/>
</mask>
<path d="M3.08062e-06 35.7511L-0.0827249 35.258L-0.0827258 36.2442L3.08062e-06 35.7511ZM0 0.248875L-0.082728 -0.244233L-0.082728 0.741984L0 0.248875ZM3 35.5C2.00569 35.5 1.03113 35.4171 0.082732 35.258L-0.0827258 36.2442C0.920128 36.4125 1.95003 36.5 3 36.5V35.5ZM32 35.5H3V36.5H32V35.5ZM49.5 18C49.5 27.665 41.665 35.5 32 35.5V36.5C42.2173 36.5 50.5 28.2173 50.5 18H49.5ZM32 0.5C41.665 0.5 49.5 8.33502 49.5 18H50.5C50.5 7.78273 42.2173 -0.5 32 -0.5V0.5ZM3 0.5H32V-0.5H3V0.5ZM0.082728 0.741984C1.03113 0.582873 2.0057 0.5 3 0.5V-0.5C1.95003 -0.5 0.920124 -0.41248 -0.082728 -0.244233L0.082728 0.741984ZM-0.082728 0.741984C8.19356 2.13048 14.5 9.32926 14.5 18H15.5C15.5 8.83277 8.83272 1.22374 0.082728 -0.244233L-0.082728 0.741984ZM14.5 18C14.5 26.6707 8.19356 33.8695 -0.0827249 35.258L0.082731 36.2442C8.83272 34.7763 15.5 27.1672 15.5 18H14.5Z" fill="#3C4658" mask="url(#path-1-inside-1_1543_24021)"/>
<g clip-path="url(#clip0_1543_24021)">
<path d="M27.7883 14.0938C28.3145 10.6927 29.5556 8.30475 31 8.30475C32.4444 8.30475 33.6855 10.6927 34.2117 14.0938H27.7883ZM34.4839 17.7501C34.4839 18.5956 34.4403 19.4068 34.3641 20.1876H27.6395C27.5633 19.4068 27.5198 18.5956 27.5198 17.7501C27.5198 16.9046 27.5633 16.0933 27.6395 15.3126H34.3641C34.4403 16.0933 34.4839 16.9046 34.4839 17.7501ZM22.7004 14.0938C23.7383 11.5078 25.8395 9.50826 28.4343 8.70084C27.5488 9.98815 26.9391 11.9267 26.6198 14.0938H22.7004ZM33.5694 8.70084C36.1605 9.50826 38.2653 11.5078 39.2996 14.0938H35.3802C35.0645 11.9267 34.4548 9.98815 33.5694 8.70084V8.70084ZM22.3121 15.3126H26.4746C26.3984 16.1124 26.3548 16.9312 26.3548 17.7501C26.3548 18.5689 26.3984 19.3878 26.4746 20.1876H22.3157C22.1161 19.4068 22.0036 18.5956 22.0036 17.7501C22.0036 16.9046 22.1161 16.0933 22.3121 15.3126ZM35.6452 17.7501C35.6452 16.9312 35.6016 16.1124 35.5254 15.3126H39.6879C39.8839 16.0933 40 16.9046 40 17.7501C40 18.5956 39.8839 19.4068 39.6879 20.1876H35.529C35.6016 19.3878 35.6452 18.5689 35.6452 17.7501V17.7501ZM34.2117 21.4063C33.6855 24.8074 32.4444 27.1954 31 27.1954C29.5556 27.1954 28.3145 24.8074 27.7883 21.4063H34.2117ZM28.4306 26.7993C25.8395 25.9919 23.7347 23.9923 22.6968 21.4063H26.6161C26.9355 23.5734 27.5452 25.512 28.4306 26.7993ZM39.2996 21.4063C38.2617 23.9923 36.1605 25.9919 33.5657 26.7993C34.4512 25.512 35.0609 23.5734 35.3802 21.4063H39.2996V21.4063Z" fill="#DBE4F2"/>
</g>
<defs>
<clipPath id="clip0_1543_24021">
<rect width="18" height="19.5" fill="white" transform="matrix(-1 0 0 1 40 8)"/>
</clipPath>
</defs>
</svg>
