<?xml version="1.0" standalone="no"?>
<!DOCTYPE svg PUBLIC "-//W3C//DTD SVG 20010904//EN"
 "http://www.w3.org/TR/2001/REC-SVG-20010904/DTD/svg10.dtd">
<svg version="1.0" xmlns="http://www.w3.org/2000/svg"
 width="774.000000pt" height="774.000000pt" viewBox="0 0 774.000000 774.000000"
 preserveAspectRatio="xMidYMid meet">
<metadata>
Created by potrace 1.14, written by Peter Selinger 2001-2017
</metadata>
<g transform="translate(0.000000,774.000000) scale(0.100000,-0.100000)"
fill="#000000" stroke="none">
<path d="M3408 7003 l-3 -367 -1277 0 c-897 0 -1278 -3 -1278 -10 0 -6 12 -43
26 -81 14 -39 30 -81 34 -95 5 -14 23 -63 40 -110 29 -76 73 -226 86 -288 9
-45 75 -236 85 -249 10 -11 211 -13 1150 -13 l1139 0 -2 -402 -3 -402 -1700
-1 c-1694 0 -1700 0 -1697 -20 2 -11 9 -38 17 -60 7 -22 29 -94 50 -160 20
-66 39 -127 43 -135 5 -15 9 -28 15 -52 2 -7 15 -49 29 -93 24 -74 31 -109 44
-220 2 -22 6 -50 7 -63 6 -41 17 -44 193 -43 194 2 176 2 274 1 258 -2 274 -2
285 0 6 1 15 1 20 0 6 -1 37 -1 70 -1 82 2 82 2 155 2 36 -1 72 -1 80 0 8 0
44 0 80 0 36 -1 74 -1 85 -1 23 1 405 1 420 1 6 0 44 -1 85 -1 258 -2 274 -2
285 0 6 1 15 1 20 0 6 -1 37 -1 70 -1 33 1 67 2 75 2 8 0 51 -1 95 -2 44 0
105 -1 135 0 111 2 229 2 253 0 6 -1 37 -1 67 0 113 2 229 2 253 0 6 -1 37 -1
67 0 113 2 229 2 253 0 6 -1 37 -1 67 0 66 1 140 1 370 -1 30 0 80 0 110 1 30
0 91 1 135 0 44 0 82 1 85 2 3 1 8 1 12 0 15 -2 164 -3 173 -1 6 1 15 1 20 0
6 -1 37 -1 70 -1 33 1 69 1 80 1 26 1 407 1 420 1 6 0 46 -1 90 -1 44 0 105 0
135 -1 95 -1 135 -1 145 1 6 1 15 1 20 0 6 -1 37 -1 70 -1 33 1 69 1 80 1 23
1 405 1 420 1 6 0 44 -1 85 -1 41 0 102 -1 135 -1 33 0 85 -1 115 -1 30 0 80
0 110 1 106 2 229 2 253 0 6 -1 37 -1 67 0 113 2 229 2 253 0 6 -1 37 -1 67 0
30 0 91 1 135 1 44 0 85 1 90 1 6 0 39 0 75 0 36 0 73 0 82 0 9 0 19 8 22 17
6 22 27 103 31 122 2 8 16 60 30 115 15 55 29 110 31 122 2 12 9 35 15 50 6
16 11 30 11 33 0 3 2 10 3 15 17 66 88 344 90 355 3 14 -175 16 -1681 15 -926
0 -1685 2 -1685 5 -1 3 -2 184 -3 403 l-1 397 1153 0 1152 0 11 27 c6 16 16
53 24 83 7 30 25 100 40 155 14 55 28 109 30 120 3 11 19 72 35 135 17 63 33
129 36 145 3 17 10 38 15 48 5 9 8 17 5 17 -2 0 2 21 10 47 8 25 14 51 14 58
0 8 -322 11 -1256 10 -827 0 -1258 3 -1262 10 -4 6 -7 170 -7 365 l0 355 -477
3 -478 2 -2 -367z"/>
<path d="M4259 3985 c-1 -5 -2 -120 -3 -255 l-1 -245 -1770 -2 c-974 -1 -1782
-3 -1797 -3 -26 0 -26 -1 -16 -37 6 -21 12 -47 13 -58 2 -11 8 -35 13 -53 6
-18 11 -35 11 -37 1 -3 1 -6 2 -7 0 -2 2 -10 4 -20 3 -17 50 -211 65 -268 5
-19 12 -48 16 -65 8 -32 10 -41 14 -52 1 -5 2 -11 1 -15 0 -4 4 -19 9 -33 10
-26 12 -34 29 -115 6 -25 14 -59 20 -77 5 -17 7 -34 3 -37 -7 -8 -176 -7 1703
-9 l1680 -2 1 -685 c0 -377 -1 -689 -3 -695 -2 -6 -167 -10 -471 -9 -257 0
-470 -1 -474 -3 -3 -2 3 -36 13 -75 11 -40 21 -80 23 -88 2 -8 16 -60 30 -115
15 -55 29 -111 32 -125 2 -14 9 -38 14 -55 14 -45 61 -226 67 -254 2 -13 9
-34 15 -45 6 -12 10 -22 9 -24 -1 -1 0 -16 4 -32 l7 -30 917 0 917 0 -1 1102
c0 607 1 1110 3 1119 3 15 69 17 764 17 424 -1 763 3 768 8 7 7 83 292 105
392 7 29 10 43 35 137 11 44 22 89 24 100 2 11 7 27 10 35 3 8 8 26 10 40 3
14 13 58 24 98 l18 72 -55 0 c-31 0 -427 1 -881 3 l-825 2 0 253 c0 138 -2
252 -5 253 -3 0 -249 2 -548 2 -355 1 -542 -1 -543 -8z"/>
<path d="M2090 2170 c0 -6 9 -30 21 -53 45 -91 71 -198 71 -292 1 -106 -5
-134 -38 -195 -28 -52 -51 -81 -116 -153 -26 -29 -48 -55 -48 -58 0 -3 37 7
83 24 68 25 98 30 177 31 91 1 98 -1 173 -38 42 -21 77 -42 77 -47 0 -4 8 -10
18 -14 23 -8 98 -78 156 -148 27 -32 50 -56 52 -54 4 4 -21 71 -62 167 -25 59
-28 76 -28 180 0 63 3 131 6 151 9 56 52 128 128 210 69 75 76 106 15 69 -46
-28 -164 -61 -222 -61 -52 -1 -102 11 -151 37 -15 8 -31 14 -36 14 -23 0 -196
145 -196 165 0 7 -67 75 -75 75 -3 0 -5 -5 -5 -10z"/>
</g>
</svg>
