<svg width="64" height="64" viewBox="0 0 64 64" fill="none" xmlns="http://www.w3.org/2000/svg">
<path d="M32 62C48.5685 62 62 48.5685 62 32C62 15.4315 48.5685 2 32 2C15.4315 2 2 15.4315 2 32C2 48.5685 15.4315 62 32 62Z" fill="#F5F5F5"/>
<path d="M23.4 33.7C26.2 35.6 30.1 34.8 32 32C33.9 29.2 37.7 28.4 40.6 30.3C43.3 32.1 44.1 35.6 42.6 38.3C45.9 32.7 44.4 25.4 38.8 21.7C33.1 17.9 25.4 19.4 21.6 25.1C21.5 25.3 21.4 25.5 21.3 25.6C19.9 28.5 20.8 31.9 23.4 33.7" fill="#ED4C5C"/>
<path d="M42.3 38.9C42.4 38.7 42.5 38.5 42.6 38.4C42.5 38.5 42.4 38.7 42.3 38.9Z" fill="#003478"/>
<path d="M40.6 30.2999C37.8 28.3999 33.9 29.2 32 32C30.1 34.8 26.3 35.6 23.4 33.7C20.7 31.9 19.9 28.4 21.4 25.7C18 31.3 19.6 38.5999 25.2 42.2999C30.9 46.0999 38.6 44.6 42.4 38.9C42.5 38.7 42.6 38.5 42.7 38.4C44.1 35.5 43.2 32.0999 40.6 30.2999" fill="#428BC1"/>
<path d="M7.80002 23.3L14.7 13L14 12.5L13.3 12.1L6.40002 22.4L7.10002 22.8L7.80002 23.3Z" fill="#3E4347"/>
<path d="M9.7 24.5999L10.4 24.9999L17.2 14.6999L16.6 14.2999L15.9 13.7999L9 24.0999L9.7 24.5999Z" fill="#3E4347"/>
<path d="M18.4 15.5L11.6 25.8L12.3 26.3L13 26.7L19.8 16.4L19.1 16L18.4 15.5Z" fill="#3E4347"/>
<path d="M48.5 42.4999L49.2001 42.9999L52.4001 38.1999L51.7001 37.6999L51 37.2999L47.8 42.0999L48.5 42.4999Z" fill="#3E4347"/>
<path d="M56.2 40.7L53 45.5L53.7 46L54.4 46.4L57.6 41.5999L56.9 41.2L56.2 40.7Z" fill="#3E4347"/>
<path d="M51.8 44.7L55 39.9L54.3 39.4L53.6 39L50.4 43.8L51.1 44.2L51.8 44.7Z" fill="#3E4347"/>
<path d="M48.1001 43.1999L47.4001 42.7999L44.2001 47.5999L44.9001 47.9999L45.6001 48.4999L48.8001 43.6999L48.1001 43.1999Z" fill="#3E4347"/>
<path d="M50.6 44.9L50 44.5L46.8 49.3L47.4001 49.7L48.1 50.2L51.3 45.4L50.6 44.9Z" fill="#3E4347"/>
<path d="M52.5 46.2L49.3 51L50 51.5L50.7001 51.9L53.9001 47.0999L53.2001 46.5999L52.5 46.2Z" fill="#3E4347"/>
<path d="M7.10002 41.2L6.40002 41.5999L13.3 51.9L14 51.5L14.7 51L7.80002 40.7L7.10002 41.2Z" fill="#3E4347"/>
<path d="M13.4001 44.9L12.7001 45.4L15.9001 50.2L16.6001 49.7L17.2001 49.3L14.0001 44.5L13.4001 44.9Z" fill="#3E4347"/>
<path d="M12.3 37.6999L11.6 38.1999L18.4 48.4999L19.1 47.9999L19.8 47.5999L13 37.2999L12.3 37.6999Z" fill="#3E4347"/>
<path d="M9 39.9L12.2 44.7L12.9 44.2L13.6 43.8L10.4 39L9.7 39.4L9 39.9Z" fill="#3E4347"/>
<path d="M53.2001 17.4L53.9001 16.9L50.7001 12.1L50 12.5L49.3 13L52.5 17.8L53.2001 17.4Z" fill="#3E4347"/>
<path d="M48.1001 20.8L48.8001 20.3L45.6001 15.5L44.9001 16L44.2001 16.4L47.4001 21.2L48.1001 20.8Z" fill="#3E4347"/>
<path d="M53 18.5L56.2 23.3L56.9 22.8L57.6 22.4L54.4 17.6L53.7 18L53 18.5Z" fill="#3E4347"/>
<path d="M54.3 24.5999L55 24.0999L48.1 13.7999L47.4001 14.2999L46.8 14.6999L53.6 24.9999L54.3 24.5999Z" fill="#3E4347"/>
<path d="M51.7001 26.3L52.4001 25.8L49.2001 21L48.5 21.5L47.8 21.9L51 26.7L51.7001 26.3Z" fill="#3E4347"/>
</svg>
