<svg width="64" height="64" viewBox="0 0 64 64" fill="none" xmlns="http://www.w3.org/2000/svg">
<path d="M32 2V32H2C2 48.6 15.4 62 32 62C48.6 62 62 48.6 62 32C62 15.4 48.6 2 32 2Z" fill="#ED4C5C"/>
<path d="M32 2C15.4 2 2 15.4 2 32H32V2Z" fill="#2A5F9E"/>
<path d="M24 20.3L29 19L24 17.7L27.7 14L22.7 15.3L24 10.3L20.3 14L19 9L17.7 14L14 10.3L15.3 15.3L10.3 14L14 17.7L9 19L14 20.3L10.3 24L15.3 22.7L14 27.7L17.7 24L19 29L20.3 24L24 27.7L22.7 22.7L27.7 24L24 20.3Z" fill="white"/>
<path d="M19 24.7C22.1481 24.7 24.7 22.1481 24.7 19C24.7 15.852 22.1481 13.3 19 13.3C15.852 13.3 13.3 15.852 13.3 19C13.3 22.1481 15.852 24.7 19 24.7Z" fill="#428BC1"/>
<path d="M19 24C21.7614 24 24 21.7614 24 19C24 16.2386 21.7614 14 19 14C16.2386 14 14 16.2386 14 19C14 21.7614 16.2386 24 19 24Z" fill="white"/>
</svg>
