<svg width="64" height="64" viewBox="0 0 64 64" fill="none" xmlns="http://www.w3.org/2000/svg">
<g clip-path="url(#clip0_168:916)">
<path d="M63.852 32.07C63.852 49.73 49.535 64.04 31.88 64.04C14.221 64.04 -0.0899658 49.729 -0.0899658 32.07C-0.0899658 14.413 14.221 0.0999756 31.88 0.0999756C49.534 0.0999756 63.852 14.413 63.852 32.07" fill="#6AB5F1"/>
<path fill-rule="evenodd" clip-rule="evenodd" d="M17.908 38.5329C17.506 38.3729 16.577 38.2089 16.562 38.6579C16.538 39.3769 16.373 38.3429 16.623 38.3429C16.941 38.3429 17.782 38.1879 17.908 38.5329Z" fill="#0E6661"/>
<path fill-rule="evenodd" clip-rule="evenodd" d="M16.623 37.07C16.43 36.991 16.892 36.82 16.562 36.752C16.649 36.622 16.783 36.815 16.949 36.689C16.771 36.854 16.856 36.884 16.949 37.071C16.846 36.995 16.676 36.846 16.623 37.071" fill="#0E6661"/>
<path d="M28.424 16.04C28.266 16.792 28.011 17.451 27.598 17.947C27.288 17.767 26.998 17.564 27.085 16.992C27.634 16.781 27.482 15.858 28.424 16.04" fill="#0E6661"/>
<path d="M29.325 23.677C29.013 23.805 29.558 23.874 29.384 24.248C29.08 24.304 29.182 23.942 28.817 24.058C28.879 23.613 28.945 23.582 28.817 23.167C28.57 23.244 28.136 23.401 27.852 23.231C27.769 23.025 28.061 23.182 27.977 22.977C27.833 23.041 27.683 23.105 27.659 23.294C27.599 23.498 27.829 23.425 27.852 23.549C27.878 23.827 27.738 23.944 27.599 24.057C27.269 23.918 27.173 23.55 27.086 23.166C27.126 23.058 27.388 23.171 27.408 23.04C27.471 22.825 27.207 22.942 27.086 22.913C27.035 22.718 27.26 22.789 27.214 22.595C27.215 22.457 26.987 22.564 26.892 22.531C26.864 22.114 26.588 21.948 26.701 21.387C26.857 21.394 27.011 21.396 27.086 21.322V20.24C27.319 20.199 27.377 19.977 27.532 19.86C27.935 19.819 27.939 20.18 28.425 20.05V21.387C28.239 21.474 28.101 21.613 27.852 21.641V22.025C27.878 22.192 28.18 22.081 28.235 22.215C28.271 22.459 27.864 22.269 27.852 22.467C27.81 22.868 28.433 22.74 28.492 22.531C28.664 22.681 28.932 22.73 29.199 22.786C29.112 23.252 29.408 23.34 29.451 23.677H30.154C30.153 23.818 30.209 23.88 30.347 23.868V24.63H30.023C29.98 24.888 30.234 24.85 30.153 25.141C30.08 25.213 29.928 25.212 29.77 25.203C29.8 24.812 29.352 24.51 29.707 24.185C29.684 23.916 29.364 23.931 29.325 23.677" fill="#0E6661"/>
<path d="M29.2 25.3319C29.397 25.3609 29.342 25.1369 29.583 25.2039C29.619 25.3569 29.828 25.3409 29.772 25.5869C29.077 25.4239 28.988 25.8679 28.56 25.9679C28.398 25.8719 28.208 25.8069 28.236 25.5229C28.256 25.2859 28.576 25.3509 28.56 25.0779C28.449 24.9299 28.07 25.0549 27.853 25.0139C27.887 24.7249 28.151 24.6799 28.039 24.2489C28.823 24.0489 28.714 24.7319 29.07 24.9489C29.271 24.9819 29.117 24.6569 29.261 24.6309C29.583 24.7199 29.382 25.2089 29.2 25.3319" fill="#0E6661"/>
<path d="M30.15 25.395C30.347 25.387 30.334 25.596 30.6 25.523C30.541 25.859 30.793 25.879 30.918 26.032C30.919 26.403 30.835 26.875 31.111 26.984C30.892 27.199 30.951 27.678 30.536 27.686C30.493 27.594 30.605 27.357 30.467 27.367C30.195 27.43 30.414 27.991 30.342 28.259C29.765 28.237 29.497 27.908 29.193 27.624C29.142 27.403 29.26 27.353 29.319 27.24C29.289 27.057 29.185 26.951 28.995 26.924C28.815 27.032 28.557 27.249 28.359 26.985C28.154 26.956 28.31 27.279 28.166 27.305C27.649 26.774 28.669 26.279 29.193 26.161V26.479C29.434 26.464 29.548 26.325 29.765 26.287V25.97C29.923 25.978 30.075 25.979 30.148 25.905C30.15 25.733 30.15 25.565 30.15 25.395Z" fill="#0E6661"/>
<path d="M5.66294 26.1599C6.15694 26.4049 6.73694 28.6719 5.40994 28.4499C5.29794 27.4949 5.58794 26.9399 5.66294 26.1599Z" fill="#0E6661"/>
<path d="M24.977 27.11C24.88 27.611 25.192 27.698 25.233 28.066C25.776 27.969 25.887 28.304 26.128 28.51C26.088 28.836 25.632 28.741 25.743 29.212H25.234C25.114 29.365 25.23 29.758 25.041 29.847C25.171 30.136 25.487 30.249 25.361 30.8C25.57 31.012 26.056 30.958 25.936 31.5C25.669 31.555 25.152 31.355 25.17 31.693C25.306 31.996 25.878 31.877 25.744 32.453C25.377 32.478 25.454 32.061 25.104 32.074C24.895 32.096 25.001 32.44 24.978 32.647C24.603 32.553 24.626 32.849 24.397 32.901C24.525 33.705 24.077 33.939 24.206 34.745C23.805 34.423 23.544 34.676 23.057 34.745C22.99 33.849 21.849 34.057 21.333 34.365C21.334 34.208 21.334 34.058 21.266 33.982H20.37C20.39 33.564 20.05 33.495 20.184 32.965C20.183 32.801 19.967 32.838 19.797 32.837C19.724 32.208 19.321 31.912 19.41 31.119C19.643 31.077 19.702 30.855 19.86 30.737C20.262 30.654 20.184 31.054 20.626 30.928C20.883 30.505 21.477 30.415 21.714 29.972C22.573 29.769 22.51 28.666 23.572 28.637C23.647 28.561 23.643 28.412 23.635 28.255H23.955C23.937 27.772 24.455 27.819 24.397 27.3C24.771 27.418 24.669 27.057 24.977 27.11" fill="#0E6661"/>
<path d="M11.9299 28.449H12.1829C12.3489 28.65 12.6859 28.668 13.0849 28.639C13.4819 29 13.5049 29.745 14.2299 29.785C14.3369 30.55 15.0849 30.67 15.7009 30.93C15.8429 31.407 16.3959 31.471 16.5339 31.948C16.6229 32.291 16.2869 32.215 16.3449 32.52C16.9909 32.594 16.8309 33.474 17.4269 33.6C17.4979 33.366 17.2689 33.419 17.2989 33.219C17.4829 33.145 17.5499 32.953 17.8779 33.03C17.6699 33.727 18.4739 33.669 18.2609 34.176C18.0639 34.222 18.1409 34.001 17.9389 34.047C17.3999 34.629 18.0639 35.28 17.6839 35.894C17.4079 35.788 17.1869 35.621 16.7229 35.703C16.5429 35.077 15.6099 35.204 15.5719 34.43C15.5009 34.359 15.3509 34.359 15.1889 34.368C15.1729 33.985 14.9919 33.762 14.8059 33.541C14.8359 33.064 14.6199 32.838 14.4229 32.586C14.3919 31.219 13.1439 31.064 12.8889 29.915C12.3959 29.595 11.9579 29.228 11.9299 28.449" fill="#0E6661"/>
<path d="M27.344 31.694H28.75C28.659 32.027 28.553 32.346 28.234 32.454C28.073 32.069 27.65 31.937 27.344 31.694Z" fill="#0E6661"/>
<path d="M27.8519 32.3299C27.7019 32.5539 26.9559 32.4739 26.7009 32.3929V32.1409C26.9789 32.0709 27.8519 31.9119 27.8519 32.3299Z" fill="#0E6661"/>
<path d="M33.22 32.454H33.415C33.271 33.045 33.743 33.025 33.803 33.411H33.22C33.283 33.02 33.072 32.754 33.22 32.454Z" fill="#0E6661"/>
<path d="M35.3399 33.4749C35.2009 33.4689 34.8239 33.7049 34.3839 33.5999C34.2929 33.3189 34.5949 33.4369 34.5699 33.2189C34.4119 32.8229 33.4649 33.2189 33.6129 32.5219C34.1319 32.5269 35.0089 32.4149 35.9149 32.4549C36.1619 32.5929 35.9899 33.1429 36.2999 33.2199C36.3479 33.4159 36.1259 33.3449 36.1719 33.5389C36.1599 33.6749 36.3989 33.5669 36.4929 33.6009V34.0469C36.5009 34.2309 36.7579 34.1659 36.9389 34.1759C37.3599 33.6369 38.0409 33.3609 38.4709 32.8389C39.0139 33.1889 39.4229 33.6779 40.3919 33.6009C40.9149 33.8859 41.4129 34.2009 42.2459 34.1759C42.5499 34.6369 43.1169 34.8339 43.5869 35.1289V35.6379C44.0859 35.7989 44.7539 35.7949 44.7389 36.4659C44.5739 36.4659 44.3659 36.4309 44.3499 36.5909C44.3069 36.9009 44.6639 36.7939 44.5489 37.1659C44.6239 37.2379 44.7729 37.2369 44.9329 37.2279C44.8199 37.6389 45.2229 37.5329 45.1239 37.9269C45.6849 38.1559 46.1519 38.4759 46.2759 39.1379C45.8699 39.2009 45.7709 38.9579 45.6289 38.7559H44.5489C44.3149 38.3119 43.8899 38.0459 43.7779 37.4819C43.2719 37.3169 42.7449 36.9459 42.2459 37.2919C42.3449 37.6919 41.9439 37.5849 42.0569 37.9919C41.6149 38.1299 41.1639 38.2519 40.5189 38.1829C40.1219 37.3809 39.4189 37.4239 38.4129 37.6129C38.3089 37.0459 38.5739 36.8419 38.9829 36.7839C38.8369 35.5319 37.8909 35.0749 36.6239 34.9379C36.1929 34.5829 35.7369 34.4999 35.1509 34.7469C35.2129 34.2389 35.0219 33.9839 34.5699 33.9839C34.6699 33.6579 35.2879 33.8479 35.3399 33.4749" fill="#0E6661"/>
<path d="M32.649 33.22C32.649 33.48 32.297 33.715 32.072 33.539C32.209 33.372 32.407 33.276 32.649 33.22Z" fill="#0E6661"/>
<path d="M33.8029 34.556C33.3839 34.216 32.9949 34.386 32.5859 34.238C32.2669 34.261 32.3449 34.681 31.8829 34.556C31.8709 34.325 32.1519 34.253 31.8829 34.11C32.2309 33.447 34.0509 33.835 33.8029 34.556Z" fill="#0E6661"/>
<path d="M31.497 34.2399C31.452 34.5549 31.122 34.5909 30.731 34.5579C30.588 33.9609 31.334 33.8219 31.497 34.2399Z" fill="#0E6661"/>
<path d="M20.501 36.59C20.635 36.601 20.522 36.365 20.558 36.274C21.154 36.259 21.494 36.488 21.909 36.656C22.102 36.467 22.446 36.427 22.863 36.466C22.903 36.882 22.411 36.783 22.162 36.909C22.225 37.188 22.786 36.967 23.057 37.036C23.15 37.328 23.397 37.464 23.821 37.42C23.822 37.577 23.835 37.726 23.764 37.801C23.365 37.835 23.225 37.413 22.994 37.801C22.684 37.472 21.863 37.656 21.266 37.613C20.875 37.428 20.516 37.213 19.925 37.228C19.719 37.285 19.84 37.019 19.67 37.037C18.963 37.43 18.041 36.761 17.49 36.402C17.786 35.707 18.082 36.105 18.9 36.085C19.228 36.457 19.974 36.417 20.501 36.59" fill="#0E6661"/>
<path d="M31.1099 37.0999C31.1589 37.3249 30.5789 37.2489 30.5349 37.1649C30.4839 36.9389 31.0609 37.0159 31.1099 37.0999Z" fill="#0E6661"/>
<path d="M26.13 37.7999C25.378 38.0429 24.691 37.8959 24.015 37.9899C24.014 37.6419 24.124 37.4169 24.463 37.4189C24.817 37.9709 25.96 36.8779 26.13 37.7999" fill="#0E6661"/>
<path d="M27.852 37.611V37.99C27.197 38.131 27.09 37.73 26.511 37.8C26.647 37.062 27.318 37.658 27.852 37.611Z" fill="#0E6661"/>
<path d="M29.962 37.48C30.011 37.705 29.439 37.63 29.383 37.545C29.336 37.323 29.917 37.396 29.962 37.48Z" fill="#0E6661"/>
<path d="M31.37 37.674C30.849 38.045 30.041 38.132 29.77 38.755C29.34 38.645 29.291 38.915 29 38.945C28.816 37.911 29.979 38.219 30.222 37.611C30.79 37.841 31.267 37.123 31.37 37.674Z" fill="#0E6661"/>
<path d="M46.08 37.99C46.445 38.052 46.574 38.346 46.72 38.626C46.648 38.643 46.673 38.753 46.59 38.755C46.364 38.618 46.325 38.297 46.02 38.245C46.007 38.131 46.092 38.111 46.08 37.99Z" fill="#0E6661"/>
<path d="M26.13 38.1799H26.894C26.895 38.4869 27.32 38.3929 27.279 38.7529C26.703 38.8799 26.685 38.4489 26.13 38.5619V38.1799Z" fill="#0E6661"/>
<path d="M37.06 52.688C37.269 52.665 37.336 52.495 37.445 52.369C36.925 52.408 36.618 53.194 35.909 53.259C36.048 52.464 35.293 52.559 35.271 51.923C34.639 51.954 34.237 51.761 33.861 51.544C33.553 51.467 33.692 51.836 33.352 51.732C33.012 51.342 32.327 51.731 32.009 51.923C30.775 51.82 30.03 52.207 29.58 52.878H28.749C28.19 52.389 27.428 52.997 27.021 53.259C26.193 53.317 25.5 53.245 25.167 52.816C25.489 52.231 25.339 51.394 24.782 51.161C24.715 50.016 23.896 49.625 23.633 48.68H23.953C23.868 48.129 23.463 47.892 23.25 47.47C23.657 47.221 23.246 46.265 23.503 46.008C23.774 45.909 23.515 46.336 23.694 46.326C24.083 45.909 24.551 45.57 25.039 45.244C25.258 45.193 25.308 45.315 25.422 45.373C25.738 45.156 26.255 45.14 26.51 44.863C27.361 45.258 27.784 44.259 28.234 43.845V43.144C28.542 43.133 28.449 42.721 28.817 42.763C28.775 43.075 28.896 43.232 29.131 43.271C29.273 43.164 29.155 42.787 29.198 42.572H29.707C29.774 42.335 29.549 42.391 29.581 42.191C30.122 41.753 30.581 41.239 31.37 41.045C31.694 41.21 31.844 41.551 32.136 41.746C32.475 41.46 32.468 41.917 32.968 41.809C32.709 41.397 33.005 41.294 33.03 40.854C33.19 40.855 33.339 40.866 33.415 40.792V40.28C33.814 40.043 34.653 40.241 34.887 39.836C34.918 39.532 34.495 39.675 34.565 39.327C35.562 39.602 36.544 40.227 37.446 39.9C37.469 40.091 37.709 40.065 37.634 40.345C37.196 40.652 37.097 41.292 36.743 41.68C37.128 42.296 38.068 42.36 38.467 42.954H38.979C38.873 43.443 39.387 43.312 39.561 43.525C39.787 43.525 39.731 43.228 40.067 43.335C40.349 42.743 40.645 42.171 40.515 41.173C40.703 40.782 40.917 40.426 40.896 39.835C41.033 39.67 41.155 39.498 41.091 39.137H41.472C41.583 39.813 41.914 40.27 41.856 41.109C41.98 41.478 42.573 41.376 42.819 41.617C42.61 42.802 43.381 43.007 43.202 44.162C43.584 44.526 44.063 44.791 44.547 45.054C44.415 45.586 44.831 45.575 44.736 46.072C44.879 46.226 45.153 46.254 45.315 46.39C45.352 47.181 45.895 47.461 46.274 47.915C46.194 48.599 45.98 49.155 46.081 50.017C45.637 50.274 45.465 50.806 45.315 51.351C45.093 51.453 44.884 51.565 44.93 51.924C44.455 51.967 44.205 52.22 44.161 52.69C43.848 52.955 43.423 53.101 43.393 53.642C43.162 53.624 43.219 53.892 43.011 53.899V54.408C42.581 54.68 41.602 54.408 41.471 54.978H40.514V54.661C40.224 54.624 40.218 54.874 40.066 54.978C39.245 55.121 38.957 54.728 38.213 54.787C38.224 54.649 38.16 54.586 38.022 54.598V53.96C37.867 53.824 37.815 53.575 37.446 53.643C37.365 53.329 37.602 53.331 37.57 53.07C37.164 53.023 37.235 53.454 36.868 53.454C36.88 53.146 37.162 53.107 37.06 52.688" fill="#0E6661"/>
<path d="M37.06 53.703C37.115 53.929 36.535 53.853 36.487 53.766C36.436 53.546 37.01 53.62 37.06 53.703Z" fill="#0E6661"/>
<path d="M39.937 55.9309C40.327 55.8599 40.51 55.9999 40.709 56.1219C40.906 55.9999 41.082 55.8589 41.471 55.9309C41.627 56.8309 40.437 57.3819 39.937 56.8239C40.207 56.5639 39.836 56.3869 39.937 55.9309Z" fill="#0E6661"/>
<path d="M3.93399 17.9569C3.93399 17.9549 3.93399 17.9519 3.93799 17.9509C4.28799 18.0249 4.37999 17.8429 4.64099 17.8259C4.68099 18.2089 4.54199 18.7759 4.76699 18.9699C4.57799 19.2469 4.33699 19.4739 4.44699 20.0509C4.76699 20.1339 4.76099 19.8979 5.02399 19.9259C4.91599 20.4939 4.55399 20.8189 4.64099 21.5779C4.69699 21.7839 4.47499 21.7089 4.44799 21.8329C4.55099 23.6229 4.23699 25.8169 4.64099 27.3029C5.31999 27.0649 5.23399 26.0709 5.79399 25.7129C5.82199 24.5779 6.58699 24.1719 6.36699 22.7869C6.56799 22.5599 7.01099 22.5809 7.00299 22.1519C7.34999 22.2569 7.28499 21.9609 7.51999 21.9609C7.78499 21.0569 8.67699 20.7799 9.11899 20.0509C9.56499 20.1399 9.49399 19.7089 9.82199 19.6709V19.1599C9.88296 19.1442 9.93855 19.1123 9.9829 19.0676C10.0272 19.0229 10.0587 18.967 10.074 18.9059C10.951 18.9959 11.399 18.6529 11.93 18.3969C11.93 18.9929 11.873 19.6339 12.436 19.6689C12.503 19.9239 12.25 19.8599 12.311 20.1129C12.759 20.5949 12.372 21.5149 12.311 22.0869C13.04 22.3369 13.269 21.5519 13.845 21.4509C13.6 22.6219 14.39 23.6559 13.845 24.5039C14.226 25.0769 13.517 25.9189 13.654 26.8579C13.683 26.9999 13.993 26.8579 14.039 26.9829C14.118 27.4199 14.288 27.7589 14.616 27.9389C14.49 28.4689 14.829 29.0689 14.616 29.2769C14.652 29.4949 14.849 29.5529 14.999 29.6579C14.991 30.7859 16.247 30.6579 16.535 31.5019C16.709 31.4609 17.042 31.5829 17.112 31.4379C17.135 31.2249 16.832 31.3339 16.723 31.2479C16.8 30.6449 16.571 30.3439 16.346 30.0399V28.5129C15.829 28.1539 15.639 27.4739 14.806 27.4319C14.942 26.7719 14.494 26.6779 14.617 26.0319C14.589 25.8899 14.279 26.0319 14.232 25.9039C14.25 25.2879 14.568 24.9639 14.807 24.5689C14.767 24.0369 14.906 23.6889 15.19 23.4859C15.49 23.4479 15.356 23.8369 15.388 24.0589C15.889 23.9619 15.98 24.2759 16.347 24.3149V24.9499C16.525 25.0499 16.848 24.9999 16.724 25.3959C16.928 25.4109 17.196 25.3529 17.301 25.4589V26.5399C17.721 26.1699 18.361 26.0239 18.519 25.3959C19.273 25.1909 19.828 24.7899 20.186 24.1879V22.2169C19.917 22.0739 19.945 21.9319 19.799 21.6429C19.676 21.3969 19.153 21.1479 19.033 20.9429C18.993 20.8819 19.073 20.7439 19.033 20.6889C18.818 20.3969 18.488 20.2699 18.648 19.5429C19.365 19.1769 19.658 18.3919 20.695 18.3359C21.003 18.4929 20.825 19.1369 21.268 19.1629C20.885 19.3539 20.289 19.3299 20.186 19.7989C20.182 20.1619 20.482 20.2229 20.628 20.4359C21.207 20.3109 21.339 19.7409 21.716 19.4169C21.73 19.1089 21.345 19.1959 21.335 18.9089C21.629 18.3919 22.314 18.2709 22.996 18.1439C23.558 17.5409 24.115 17.6899 25.106 17.5729C25.153 17.3239 25.304 17.1769 25.426 16.9989C26.39 17.0929 26.252 16.0809 27.089 16.0459C26.943 15.1599 27.845 15.3159 27.855 14.5829C28.499 14.5199 28.515 13.8389 28.82 13.4369C28.729 13.2509 28.202 13.4939 28.112 13.3099C28.072 13.0359 28.562 13.2899 28.623 13.1179C28.864 12.1609 27.95 12.3469 28.04 11.5289C27.888 11.3499 27.669 11.2269 27.535 11.0199C27.977 10.6079 28.38 10.1619 29.202 10.1289V9.80795C28.985 9.65895 28.436 9.84995 28.369 9.55395C28.128 9.67395 27.903 9.81595 27.662 9.93495C27.462 9.96795 27.456 9.79795 27.474 9.61695C27.263 9.50995 26.915 9.53495 26.958 9.17295C28.036 9.26895 28.127 8.38095 29.134 8.40995C29.024 8.76695 28.753 8.96295 28.623 9.29695C29.128 9.30795 29.697 8.50895 30.544 8.85395C30.6 9.16495 30.493 9.31195 30.351 9.42795C30.391 9.78795 30.825 9.75895 31.244 9.74495C31.114 10.2879 31.193 10.5239 31.119 11.2729C31.808 11.2549 32.239 10.9879 32.847 10.8909C32.961 9.84395 32.534 9.33395 31.888 9.04695C31.999 8.62695 32.579 8.67295 32.847 8.40995C32.827 7.78495 33.419 7.75295 33.74 7.45395C34.972 8.14495 35.604 6.82895 36.429 6.50195C36.528 6.13395 36.756 5.89495 37.065 5.73695V4.46395C37.748 4.63295 37.543 5.68295 38.026 6.05395C37.949 6.53095 37.981 6.78695 38.217 7.07295C38.16 7.48395 37.598 7.39395 37.449 7.70795C37.862 8.11295 37.961 9.08495 37.637 9.68095C37.398 9.77295 37.521 9.50895 37.32 9.55495C37.079 9.69595 37.485 9.72595 37.386 9.93595C36.768 9.84895 36.679 10.2949 36.17 10.3189C36.031 10.3079 36.143 10.5429 36.108 10.6369C35.599 10.3599 35.219 10.8709 34.442 10.7009C34.009 11.1169 33.455 11.4139 32.846 11.6539C32.791 12.1959 33.207 12.2649 33.223 12.7359C33.391 12.8109 33.592 12.8399 33.675 12.9919C34.113 12.9629 33.893 12.2769 34.183 12.0999C34.234 11.7369 33.822 11.8289 33.865 11.4639H34.317C34.446 11.5679 34.311 11.9329 34.442 12.0379C34.84 12.0299 34.939 11.7229 35.464 11.8449C35.653 11.7539 35.404 11.2349 35.59 11.1449C35.819 11.3459 35.897 11.6879 36.169 11.8449C36.411 11.6819 36.689 11.5569 36.685 11.1449C37.211 11.2629 37.83 11.3789 38.025 10.9539C38.227 10.9009 38.222 11.0549 38.347 11.0829C38.509 11.1019 38.392 10.8359 38.596 10.8899C38.485 9.99295 38.732 9.44995 38.981 8.91795C38.763 8.54495 38.32 8.38695 38.278 7.83795C38.62 7.81795 38.945 7.81095 39.045 8.02695C39.366 7.91795 39.378 7.50495 39.941 7.64495C39.975 7.55195 39.869 7.31795 40.003 7.32795C39.829 7.03995 39.34 7.05895 38.854 7.07295C38.813 6.69695 38.268 6.80995 38.218 6.43595C38.272 6.25695 38.562 6.31095 38.791 6.30795C38.816 5.94995 38.463 5.95995 38.218 5.86395V5.41795C38.26 5.29395 38.573 5.43295 38.598 5.29295V5.03695C37.857 4.91195 37.956 3.93695 37.387 3.63795C37.132 3.61695 37.207 3.92995 37.006 3.95295C36.568 3.71495 36.09 3.50795 35.592 3.82695C35.53 3.58995 35.754 3.64695 35.723 3.44695C35.423 3.32195 35.316 3.71295 35.151 3.50895C35.078 3.17595 35.553 3.23495 35.853 3.06395C36.203 2.86395 36.809 2.08295 37.321 2.68295C38.428 2.55795 39.111 2.85495 40.071 2.87395C40.237 2.80395 40.05 2.38195 40.205 2.29995H40.837C40.873 2.47895 41.065 2.50695 41.096 2.68295C41.41 2.75895 41.268 2.38995 41.608 2.49195C41.505 2.75195 41.552 3.15895 41.096 3.06495C41.001 4.31295 42.707 4.34495 42.443 5.35595C42.747 5.34695 42.753 5.03295 43.017 4.97395C42.841 4.25195 43.562 4.40895 43.399 3.70195C43.166 3.29795 42.383 3.44195 42.309 2.87495C42.769 3.00395 42.707 3.05795 43.14 2.87495C43.382 2.80795 43.353 3.00795 43.459 3.06495C43.582 3.06295 43.708 3.07295 43.838 3.08895C43.7435 2.96694 43.6617 2.83559 43.594 2.69695C43.475 2.45895 43.859 2.64295 43.838 2.40695C40.122 1.07095 35.436 -0.086051 30.673 0.136949C28.321 0.248949 25.674 0.616949 23.51 1.22095C17.174 2.98395 11.971 6.35595 8.22399 10.4429C6.40799 12.4339 4.68599 15.0859 3.26099 17.7269C3.42299 17.7939 3.56099 17.5369 3.68499 17.6579C3.77499 17.7529 3.86199 17.8539 3.93399 17.9569" fill="#0E6661"/>
<path d="M29.771 31.12V31.694C29.238 31.585 29.396 32.168 28.875 32.075C28.821 32.356 28.83 32.702 28.492 32.71C28.393 32.98 28.826 32.711 28.818 32.901C28.791 33.197 28.374 32.963 28.366 32.838C28.216 33.051 28.125 33.318 27.918 33.475C28.181 34.018 28.295 34.708 28.818 35.001C28.719 35.205 28.536 35.321 28.621 35.701H28.236V35.382C27.999 35.315 28.048 35.541 27.853 35.512C27.798 35.291 27.573 35.24 27.472 35.066C27.436 34.922 27.592 34.975 27.6 34.874C27.239 34.705 27.409 34.005 27.087 33.794C26.663 34.076 27 35.107 26.894 35.702H26.13C26.16 35.242 26.438 35.035 26.318 34.429C26.219 34.324 25.943 34.378 25.745 34.367C25.879 33.502 26.152 33.003 25.937 32.268C26.168 32.306 26.136 32.079 26.13 31.885H26.452C26.697 30.428 28.705 31.827 29.771 31.12V31.12ZM28.234 32.454C28.552 32.346 28.659 32.027 28.75 31.694H27.344C27.65 31.937 28.073 32.069 28.234 32.454ZM26.701 32.14V32.392C26.955 32.473 27.698 32.553 27.852 32.329C27.852 31.912 26.979 32.071 26.701 32.14Z" fill="#0E6661"/>
<path d="M31.6879 30.548H31.8829C31.9839 30.754 31.8669 30.79 31.8829 31.057C32.1359 31.119 32.0759 30.867 32.3269 30.93C32.3479 31.014 32.4429 31.03 32.4549 31.12C32.5459 31.397 32.2099 31.255 32.2629 31.501C32.2809 31.804 32.7039 31.701 32.6479 32.075C32.0079 31.925 32.1069 32.514 31.6869 32.583C31.6879 32.872 31.9689 32.897 32.0719 33.092C32.0169 33.331 31.8349 33.45 31.4959 33.411C31.3379 32.3 31.3859 31.576 31.6879 30.548" fill="#0E6661"/>
</g>
<defs>
<clipPath id="clip0_168:916">
<rect width="64" height="64" fill="white"/>
</clipPath>
</defs>
</svg>
