<svg id="Capa_1" data-name="Capa 1" xmlns="http://www.w3.org/2000/svg" width="36.174" height="29.454" viewBox="0 0 36.174 29.454">
  <title>camera</title>
  <path d="M23.921,20.528a5.8335,5.8335,0,1,1-5.834-5.834A5.84,5.84,0,0,1,23.921,20.528Zm12.253-8.284v16.57a4,4,0,0,1-4,4H4a4,4,0,0,1-4-4V12.244a4,4,0,0,1,4-4H8.92V6.86a3.4994,3.4994,0,0,1,3.5-3.5H23.754a3.4994,3.4994,0,0,1,3.5,3.5V8.243h4.92A4.0017,4.0017,0,0,1,36.174,12.244Zm-9.253,8.284a8.8335,8.8335,0,1,0-8.834,8.834A8.8441,8.8441,0,0,0,26.921,20.528Z" transform="translate(0 -3.36)" style="fill: #fff"/>
</svg>
