<svg width="341" height="78" viewBox="0 0 341 78" fill="none" xmlns="http://www.w3.org/2000/svg">
<g clip-path="url(#clip0_1208_2331)">
<path d="M91.7385 74.2158V3.17522C91.7384 2.60161 91.8931 2.03869 92.1863 1.54567C92.4794 1.05264 92.9002 0.647862 93.4042 0.374023H70.7058C71.2092 0.648139 71.6292 1.05315 71.9214 1.54623C72.2136 2.03931 72.3671 2.60207 72.3658 3.17522V74.2158C72.3661 74.788 72.212 75.3497 71.9199 75.8417C71.6277 76.3336 71.2083 76.7377 70.7058 77.0114H93.4042C92.901 76.738 92.4809 76.3342 92.1877 75.8422C91.8946 75.3503 91.7394 74.7884 91.7385 74.2158V74.2158Z" fill="#DBE4F2"/>
<path d="M169.759 74.2619V3.10036C169.772 2.54023 169.933 1.9934 170.224 1.51485C170.515 1.0363 170.928 0.642883 171.419 0.374023H148.727C149.226 0.644564 149.644 1.04382 149.937 1.53033C150.23 2.01684 150.387 2.57289 150.392 3.14074V31.1246C150.382 34.3018 150.574 37.4766 150.969 40.6293C151.396 43.9489 152.002 47.243 152.784 50.4972L152.421 50.9814C151.211 48.5606 150.121 46.4624 149.153 44.6871C148.185 42.9118 147.134 41.1155 146 39.2979C144.87 37.4842 143.458 35.3247 141.764 32.8193L120.587 1.2904C120.865 0.913704 121.221 0.601251 121.63 0.374023H99.0587C99.5627 0.647862 99.9836 1.05264 100.277 1.54567C100.57 2.03869 100.725 2.60161 100.725 3.17522V74.2158C100.724 74.7884 100.568 75.3503 100.275 75.8422C99.9821 76.3342 99.5619 76.738 99.0587 77.0114H121.74C121.273 76.7561 120.878 76.3883 120.59 75.9413C120.302 75.4943 120.131 74.9824 120.091 74.4522V47.4538C120.091 44.3067 119.97 41.0578 119.728 37.7071C119.425 34.0327 118.736 30.4005 117.671 26.8708L118.034 26.3866C119.244 28.8075 120.339 30.9114 121.302 32.6809C122.264 34.4505 123.319 36.2373 124.455 38.0126C125.59 39.7879 126.997 41.9666 128.691 44.5488L149.804 75.9854C149.519 76.4027 149.14 76.748 148.698 76.994H171.39C170.903 76.7214 170.496 76.3255 170.209 75.846C169.923 75.3665 169.768 74.8203 169.759 74.2619V74.2619Z" fill="#DBE4F2"/>
<path d="M53.6565 0.374023H42.2958C42.5033 0.491971 42.6966 0.633123 42.8722 0.79478C43.0492 0.955349 43.2077 1.1351 43.3448 1.33079L35.5289 14.0115L27.713 26.6921C27.2692 27.3377 26.8023 27.9833 26.3066 28.6289C25.8109 29.2744 25.2921 29.9199 24.7503 30.5655C24.3064 31.1159 23.7908 31.6044 23.2172 32.018C22.8377 32.3078 22.3797 32.4766 21.903 32.5022H21.5398V0.420039H0.501465C1.00453 0.690545 1.42501 1.09225 1.71828 1.5824C2.01156 2.07254 2.1667 2.63288 2.16725 3.20407V74.2735C2.1667 74.8447 2.01156 75.405 1.71828 75.8951C1.42501 76.3853 1.00453 76.787 0.501465 77.0575H23.1883C22.7174 76.8019 22.3191 76.4308 22.0308 75.9792C21.7424 75.5275 21.5735 75.0099 21.5398 74.4751V45.3903H21.903C22.3793 45.4135 22.8374 45.5804 23.2172 45.8688C23.7908 46.2756 24.3066 46.7584 24.7503 47.304C25.2921 47.9419 25.8109 48.5798 26.3066 49.2176C26.8023 49.8574 27.2692 50.4971 27.713 51.1369L35.5289 63.6563L43.3448 76.1756C43.2076 76.3695 43.0491 76.5473 42.8722 76.7058C42.6979 76.8674 42.5043 77.0068 42.2958 77.1208H65.023V76.7635L58.1062 65.7486L51.1895 54.728C50.5824 53.7289 49.9368 52.6971 49.2528 51.6327C48.5689 50.5683 47.8426 49.4655 47.0741 48.3242C46.3055 47.1714 45.537 46.1031 44.7685 45.1194C44 44.1357 43.2488 43.2078 42.5148 42.3355C41.876 41.5815 41.172 40.8852 40.411 40.2547C39.8668 39.7909 39.2493 39.4209 38.5838 39.1596V38.8022C39.2507 38.5386 39.8684 38.1645 40.411 37.6955C41.1732 37.058 41.8773 36.3538 42.5148 35.5916C43.2834 34.727 44.0345 33.7895 44.7685 32.7789C45.5293 31.7702 46.2902 30.6865 47.0741 29.5395C47.858 28.3925 48.5669 27.2744 49.2528 26.1965C49.9388 25.1186 50.5843 24.0695 51.1895 23.0608L58.1062 11.925L65.023 0.783241V0.420039L53.6565 0.374023Z" fill="#DBE4F2"/>
<path d="M310.382 22.7381V17.9885H333.72L336.026 5.20409H310.382V3.2444C310.392 2.68119 310.55 2.13057 310.842 1.64863C311.134 1.16668 311.548 0.770615 312.042 0.500763H289.338C289.83 0.769936 290.242 1.16432 290.533 1.64412C290.823 2.12392 290.982 2.67207 290.992 3.23287V5.20409H264.167L266.472 17.9885H290.992V22.7381H259.221L261.527 35.4763H338.677L340.983 22.7381H310.382Z" fill="#DBE4F2"/>
<path d="M329.495 37.7186H306.82C307.28 37.9695 307.67 38.3302 307.957 38.7687C308.244 39.2071 308.417 39.7097 308.463 40.2316H259.239L261.544 53.016H313.074L313.35 53.2812C311.737 53.8615 310.336 54.3918 309.148 54.8721L308.468 55.1659V62.0826C308.467 62.5876 308.265 63.0715 307.908 63.4281C307.55 63.7846 307.065 63.9848 306.56 63.9848H292.058L294.168 76.9421H321.616C322.437 76.9421 323.25 76.7804 324.008 76.466C324.767 76.1517 325.456 75.6909 326.036 75.1101C326.616 74.5293 327.076 73.8399 327.39 73.0811C327.704 72.3224 327.865 71.5093 327.864 70.6883V53.0044H338.723L341.029 40.2201H327.881C327.925 39.703 328.096 39.2046 328.377 38.7685C328.658 38.3324 329.042 37.972 329.495 37.7186V37.7186Z" fill="#DBE4F2"/>
<path d="M288.116 63.9963H282.502L278.179 55.4657H286.882L288.116 63.9963Z" fill="#DBE4F2"/>
<path d="M177.685 38.0701C177.678 42.8435 178.584 47.574 180.353 52.0073L213.692 18.6688L199.121 4.09174C192.713 7.16573 187.303 11.9847 183.511 17.9951C179.719 24.0056 177.7 30.9636 177.685 38.0701V38.0701Z" fill="#DD0000"/>
<path d="M181.35 54.2841C185.468 62.906 192.707 69.6411 201.604 73.1256C210.5 76.6101 220.388 76.5836 229.266 73.0514L195.927 39.7129L181.35 54.2841Z" fill="#DD0000"/>
<path d="M252.979 38.0701C252.984 33.2987 252.079 28.5702 250.31 24.1387L216.971 57.4773L231.543 72.0485C237.951 68.9756 243.362 64.1569 247.154 58.1463C250.946 52.1356 252.965 45.177 252.979 38.0701V38.0701Z" fill="#DD0000"/>
<path d="M215.329 0.425839C210.557 0.417483 205.828 1.32345 201.397 3.09462L234.736 36.4332L249.313 21.8563C246.237 15.4496 241.417 10.0402 235.406 6.24945C229.394 2.4587 222.436 0.440231 215.329 0.425839V0.425839Z" fill="#DD0000"/>
</g>
<defs>
<clipPath id="clip0_1208_2331">
<rect width="340.482" height="76.7008" fill="white" transform="translate(0.518311 0.373962)"/>
</clipPath>
</defs>
</svg>
